# Blender 4.3.2
# www.blender.org
mtllib boulder.mtl
o Cube.001
v -4.571922 -2.199881 2.741871
v -3.583003 4.301730 4.214533
v -3.329120 -1.759472 -3.244881
v -3.238716 3.688604 -3.050103
v 3.669469 -2.654622 2.662482
v 3.922361 4.275781 3.941114
v 3.137334 -2.160911 -4.086558
v 3.813743 3.751659 -4.179658
v -4.145380 -2.067437 -0.341242
v -4.846060 0.604712 3.855907
v -3.605719 4.438043 0.493859
v -3.893761 0.631771 -3.523651
v -0.236688 -2.255057 -4.604213
v 0.224078 4.439431 -3.730173
v 4.339695 0.063089 -4.823494
v 3.532112 -2.497721 -0.939059
v 4.157198 4.711199 -0.313268
v 4.663865 0.329781 3.688013
v -0.635964 -2.925813 3.833705
v 0.237364 4.972265 5.478580
v 0.305922 5.645178 0.646166
v -0.513456 -3.061849 -0.619300
v -0.034453 0.258099 6.632367
v 5.217746 0.318670 -0.822582
v 0.017698 0.882515 -5.937078
v -5.019130 0.795565 0.164276
v -4.494619 -2.155566 1.396385
v -4.276562 2.706208 4.245985
v -3.465619 4.057061 -1.591448
v -3.664611 -0.850467 -3.469112
v -2.164252 -2.058301 -3.959806
v 2.130753 4.286871 -4.224382
v 3.788360 -1.414261 -4.557341
v 3.361230 -2.420881 -2.809796
v 4.133399 4.621215 2.178539
v 4.429987 -1.661237 3.225897
v 2.099607 -2.829925 3.378282
v -2.100368 4.839786 5.049383
v -3.695814 -1.959649 -2.016314
v -4.931693 -1.166276 3.319165
v -3.708729 4.523546 2.646284
v -3.726874 2.358000 -3.373016
v 1.805052 -2.205645 -4.487075
v -1.654320 4.184628 -3.547173
v 4.292531 2.142967 -4.660980
v 3.678503 -2.593968 1.071986
v 4.082970 4.272657 -2.680298
v 4.371927 2.623037 4.005743
v -3.263119 -2.703986 3.291653
v 2.532316 4.820485 4.906855
v 0.286561 5.718446 3.387960
v 0.284529 5.250278 -1.905931
v 2.529467 5.730798 0.059365
v -1.920284 5.494940 0.556065
v -0.651340 -3.043077 1.737371
v -0.370045 -2.921664 -2.761543
v -2.725809 -2.782719 -0.528219
v 1.825805 -2.930384 -0.831751
v -3.296354 0.424513 5.367707
v 3.134493 0.335259 5.399320
v -0.384358 -2.022295 5.621816
v 0.133273 2.837674 6.514178
v 5.130833 0.437275 1.580522
v 5.139554 -0.084577 -3.138863
v 4.672030 -1.494173 -0.942910
v 5.019814 2.732268 -0.572839
v 2.534100 0.527525 -5.802019
v -2.365441 0.730435 -4.950555
v -0.088509 -0.792125 -5.632537
v 0.137490 2.927390 -5.060725
v -4.645628 0.699552 -1.784400
v -5.191254 0.762871 2.084431
v -4.864257 -0.858041 -0.092405
v -4.602089 2.718985 0.377199
v -4.717237 2.758440 2.420173
v -5.132782 -0.936815 1.707871
v -4.382684 -0.872683 -1.895159
v -2.168955 2.611699 -4.617063
v -2.244706 -0.831857 -4.743331
v 2.179678 -1.029152 -5.444830
v 4.943829 2.366819 -2.943671
v 4.478936 -1.674356 -3.031993
v 4.731849 -1.474909 1.272543
v 2.810058 2.802082 5.610177
v 2.908013 -1.880861 4.707318
v -3.592192 -1.671573 4.575151
v 1.768625 -2.758507 -2.826116
v -2.376148 -2.606804 -2.392651
v -3.045482 -2.835786 1.473899
v -1.792162 4.930727 -1.812161
v 2.379810 5.157910 -2.480679
v 2.580952 5.631870 2.834809
v -2.037056 5.549516 3.104759
v 1.907231 -2.932863 1.359083
v -2.615184 2.844807 5.684925
v 4.912830 2.730184 1.896009
v 2.502992 2.549622 -5.460571
v -4.328248 2.515459 -1.646888
vn -0.9122 0.3304 -0.2425
vn -0.6294 0.6168 -0.4728
vn -0.7901 0.2709 -0.5499
vn 0.1923 0.3781 -0.9056
vn 0.5500 0.6220 -0.5574
vn 0.7201 0.2276 -0.6555
vn 0.9665 0.2200 0.1319
vn 0.7538 0.4982 0.4284
vn 0.8617 0.1451 0.4863
vn -0.4660 0.1987 0.8622
vn -0.7093 0.5690 0.4161
vn -0.8269 0.2565 0.5004
vn 0.1089 -0.9940 0.0108
vn 0.4803 -0.8597 0.1738
vn 0.1560 -0.9488 0.2746
vn -0.3034 0.9437 0.1317
vn -0.3432 0.6960 0.6307
vn -0.0000 0.9834 0.1814
vn 0.3884 0.6632 0.6397
vn 0.3169 0.9334 0.1685
vn -0.1069 0.9545 -0.2784
vn 0.2476 0.9649 -0.0876
vn 0.1977 0.9216 -0.3340
vn -0.3001 0.9092 -0.2886
vn -0.7026 0.7009 -0.1231
vn -0.2950 0.9457 -0.1366
vn -0.0285 -0.9992 0.0276
vn -0.2867 -0.9070 0.3084
vn -0.2566 -0.9661 -0.0281
vn -0.3174 -0.9196 -0.2314
vn -0.0445 -0.9983 -0.0382
vn -0.2945 -0.9500 -0.1042
vn 0.3760 -0.9130 -0.1585
vn 0.1400 -0.9890 -0.0482
vn 0.1234 -0.9728 -0.1961
vn -0.4900 -0.5116 0.7058
vn -0.8777 0.0197 0.4789
vn -0.8811 -0.2734 0.3860
vn 0.4427 -0.5833 0.6810
vn -0.0027 -0.1835 0.9830
vn -0.0580 -0.6522 0.7558
vn 0.5077 0.1752 0.8436
vn 0.0370 0.7202 0.6928
vn 0.0291 0.2271 0.9734
vn 0.9913 -0.0591 0.1177
vn 0.8125 -0.4457 0.3757
vn 0.8895 -0.4554 0.0379
vn 0.9586 -0.1600 -0.2354
vn 0.8452 -0.5340 -0.0223
vn 0.7561 -0.6159 -0.2213
vn 0.6774 0.6882 -0.2596
vn 0.9665 0.2558 -0.0195
vn 0.9448 0.2496 -0.2124
vn 0.1769 -0.4483 -0.8762
vn 0.7093 -0.1513 -0.6885
vn 0.5533 -0.5341 -0.6393
vn -0.5349 0.0170 -0.8448
vn -0.1508 -0.3625 -0.9197
vn -0.4890 -0.3221 -0.8107
vn -0.2784 0.7643 -0.5816
vn -0.1513 0.5228 -0.8389
vn -0.4332 0.4011 -0.8071
vn -0.8946 -0.3115 -0.3203
vn -0.8157 -0.0104 -0.5784
vn -0.7743 -0.2809 -0.5670
vn -0.9725 -0.2293 -0.0400
vn -0.9865 0.0835 -0.1410
vn -0.9424 -0.2715 -0.1953
vn -0.9303 0.3571 0.0837
vn -0.9224 0.3702 -0.1099
vn -0.9939 0.0975 0.0519
vn -0.7299 0.6814 0.0544
vn -0.6963 -0.7084 -0.1152
vn -0.6825 -0.7064 -0.1877
vn -0.6950 -0.6969 0.1770
vn -0.6727 -0.6886 -0.2708
vn -0.6517 -0.6033 -0.4596
vn -0.9551 0.0267 -0.2952
vn -0.1612 0.0809 -0.9836
vn -0.1119 -0.7745 -0.6226
vn -0.3798 -0.7237 -0.5763
vn 0.3268 -0.8263 -0.4587
vn 0.1057 -0.8132 -0.5722
vn 0.9961 -0.0877 -0.0004
vn 0.4529 -0.8895 -0.0607
vn 0.4833 -0.8748 -0.0345
vn 0.5653 -0.1500 0.8111
vn 0.8839 -0.0897 0.4590
vn -0.0541 -0.9540 0.2947
vn -0.5329 -0.1115 0.8388
vn -0.0655 -0.9742 -0.2161
vn -0.0593 0.9947 -0.0839
vn -0.1291 0.8088 -0.5737
vn 0.7369 0.6725 -0.0690
vn 0.0908 0.7678 -0.6342
vn 0.7766 0.6206 0.1086
vn 0.2585 -0.0549 -0.9644
vn -0.6864 0.6918 -0.2244
vt 0.580988 0.363390
vt 0.531404 0.361513
vt 0.549491 0.405086
vt 0.442817 0.502465
vt 0.411990 0.477400
vt 0.415195 0.523090
vt 0.307876 0.476623
vt 0.284190 0.411753
vt 0.275430 0.458714
vt 0.165335 0.349379
vt 0.143894 0.288740
vt 0.123286 0.333542
vt 0.194844 0.669915
vt 0.234502 0.622794
vt 0.199155 0.603758
vt 0.203115 0.240597
vt 0.189316 0.296732
vt 0.269097 0.293334
vt 0.265577 0.374764
vt 0.301507 0.354065
vt 0.428156 0.337139
vt 0.357390 0.360814
vt 0.404167 0.401821
vt 0.487085 0.300716
vt 0.607914 0.251481
vt 0.453636 0.206613
vt 0.124526 0.612364
vt 0.110697 0.513922
vt 0.086446 0.545453
vt 0.599847 0.591852
vt 0.655709 0.669939
vt 0.643905 0.577372
vt 0.414159 0.686646
vt 0.194935 0.761826
vt 0.487831 0.708989
vt 0.123231 0.470163
vt 0.105956 0.395129
vt 0.096714 0.448861
vt 0.217325 0.557967
vt 0.189502 0.449619
vt 0.169457 0.511535
vt 0.246750 0.425290
vt 0.233191 0.332608
vt 0.209033 0.386417
vt 0.298497 0.552770
vt 0.250395 0.587128
vt 0.283859 0.618299
vt 0.388896 0.580084
vt 0.338773 0.642771
vt 0.395332 0.638366
vt 0.390572 0.455800
vt 0.349513 0.494094
vt 0.387327 0.514638
vt 0.467106 0.603606
vt 0.421372 0.576147
vt 0.431807 0.622253
vt 0.531467 0.493099
vt 0.506322 0.573697
vt 0.545279 0.541610
vt 0.493059 0.373086
vt 0.473447 0.460854
vt 0.514104 0.434070
vt 0.606009 0.488383
vt 0.565485 0.461569
vt 0.576444 0.511660
vt 0.668248 0.449528
vt 0.635352 0.401384
vt 0.638623 0.464297
vt 0.679936 0.320882
vt 0.628207 0.325496
vt 0.671435 0.390930
vt 0.084023 0.320882
vt 0.075523 0.390930
vt 0.109444 0.257728
vt 0.669205 0.497166
vt 0.640703 0.517456
vt 0.092015 0.485415
vt 0.072335 0.449528
vt 0.073292 0.497166
vt 0.608699 0.536772
vt 0.584328 0.544063
vt 0.597636 0.429552
vt 0.491037 0.525635
vt 0.529366 0.621702
vt 0.564935 0.579051
vt 0.443652 0.656231
vt 0.481864 0.650193
vt 0.344868 0.572424
vt 0.327817 0.703656
vt 0.257228 0.663212
vt 0.233751 0.494080
vt 0.264738 0.527669
vt 0.150565 0.559266
vt 0.140577 0.411124
vt 0.571534 0.663222
vt 0.790848 0.761826
vt 0.682359 0.545453
vt 0.720438 0.612364
vt 0.355980 0.278919
vt 0.455082 0.398528
vt 0.354018 0.425531
vt 0.430685 0.442316
vt 0.312114 0.412232
vt 0.705357 0.257728
vt 0.799028 0.240597
vt 0.790757 0.669915
vt 0.453883 0.558375
vt 0.549127 0.311023
s 1
usemtl Material.008
f 98/1/1 4/2/2 42/3/3
f 97/4/4 8/5/5 45/6/6
f 96/7/7 6/8/8 48/9/9
f 95/10/10 2/11/11 28/12/12
f 94/13/13 5/14/14 37/15/15
f 93/16/16 2/11/11 38/17/17
f 51/18/18 50/19/19 92/20/20
f 52/21/21 53/22/22 91/23/23
f 90/24/24 11/25/25 54/26/26
f 55/27/27 49/28/28 89/29/29
f 88/30/30 22/31/31 57/32/32
f 34/33/33 58/34/34 87/35/35
f 86/36/36 10/37/37 40/38/38
f 85/39/39 23/40/40 61/41/41
f 84/42/42 20/43/43 62/44/44
f 63/45/45 36/46/46 83/47/47
f 64/48/48 65/49/49 82/50/50
f 47/51/51 66/52/52 81/53/53
f 80/54/54 15/55/55 33/56/56
f 68/57/57 69/58/58 79/59/59
f 44/60/60 70/61/61 78/62/62
f 77/63/63 12/64/64 30/65/65
f 76/66/66 26/67/67 73/68/68
f 75/69/69 11/25/25 74/70/70
f 72/71/71 74/70/70 26/67/67
f 10/37/37 75/72/69 72/73/71
f 28/12/12 41/74/72 75/72/69
f 27/75/73 73/68/68 9/76/74
f 1/77/75 76/78/66 27/79/73
f 40/38/38 72/73/71 76/78/66
f 39/80/76 30/65/65 3/81/77
f 9/76/74 77/63/63 39/80/76
f 73/68/68 71/82/78 77/63/63
f 78/62/62 25/83/79 68/57/57
f 42/3/3 68/57/57 12/64/64
f 4/2/2 78/62/62 42/3/3
f 79/59/59 13/84/80 31/85/81
f 3/81/77 79/59/59 31/85/81
f 12/64/64 79/59/59 30/65/65
f 80/54/54 7/86/82 43/87/83
f 69/58/58 43/87/83 13/84/80
f 25/83/79 80/54/54 69/58/58
f 81/53/53 24/88/84 64/48/48
f 45/6/6 64/48/48 15/55/55
f 8/5/5 81/53/53 45/6/6
f 82/50/50 16/89/85 34/33/33
f 7/86/82 82/50/50 34/33/33
f 33/56/56 64/48/48 82/50/50
f 83/47/47 5/14/14 46/90/86
f 65/49/49 46/90/86 16/89/85
f 24/88/84 83/47/47 65/49/49
f 84/42/42 23/40/40 60/91/87
f 48/9/9 60/91/87 18/92/88
f 6/8/8 84/42/42 48/9/9
f 37/15/15 61/41/41 19/93/89
f 5/14/14 85/39/39 37/15/15
f 18/92/88 85/39/39 36/46/46
f 86/36/36 1/77/75 49/28/28
f 19/93/89 86/36/36 49/28/28
f 61/41/41 59/94/90 86/36/36
f 56/95/91 58/96/34 22/31/31
f 13/84/80 87/35/35 56/95/91
f 7/86/82 87/35/35 43/87/83
f 39/80/76 57/32/32 9/76/74
f 3/81/77 88/30/30 39/80/76
f 31/85/81 56/95/91 88/30/30
f 89/29/29 1/77/75 27/79/73
f 9/76/74 89/97/29 27/75/73
f 57/32/32 55/98/27 89/97/29
f 90/24/24 21/99/92 52/21/21
f 44/60/60 52/21/21 14/100/93
f 4/2/2 90/24/24 44/60/60
f 91/23/23 17/101/94 47/51/51
f 32/102/95 47/51/51 8/5/5
f 14/100/93 91/23/23 32/102/95
f 92/20/20 6/8/8 35/103/96
f 53/22/22 35/103/96 17/101/94
f 21/99/92 92/20/20 53/22/22
f 51/18/18 38/17/17 20/43/43
f 21/99/92 93/16/16 51/18/18
f 54/26/26 41/104/72 93/105/16
f 55/27/27 37/15/15 19/93/89
f 22/31/31 94/106/13 55/98/27
f 58/34/34 46/90/86 94/13/13
f 59/94/90 28/12/12 10/37/37
f 23/40/40 95/10/10 59/94/90
f 62/44/44 38/17/17 95/10/10
f 96/7/7 18/92/88 63/45/45
f 66/52/52 63/45/45 24/88/84
f 17/101/94 96/7/7 66/52/52
f 67/107/97 45/6/6 15/55/55
f 25/83/79 97/4/4 67/107/97
f 70/61/61 32/102/95 97/4/4
f 71/82/78 42/3/3 12/64/64
f 26/67/67 98/1/1 71/82/78
f 74/70/70 29/108/98 98/1/1
f 98/1/1 29/108/98 4/2/2
f 97/4/4 32/102/95 8/5/5
f 96/7/7 35/103/96 6/8/8
f 95/10/10 38/17/17 2/11/11
f 94/13/13 46/90/86 5/14/14
f 93/16/16 41/74/72 2/11/11
f 51/18/18 20/43/43 50/19/19
f 52/21/21 21/99/92 53/22/22
f 90/24/24 29/108/98 11/25/25
f 55/27/27 19/93/89 49/28/28
f 88/30/30 56/95/91 22/31/31
f 34/33/33 16/89/85 58/34/34
f 86/36/36 59/94/90 10/37/37
f 85/39/39 60/91/87 23/40/40
f 84/42/42 50/19/19 20/43/43
f 63/45/45 18/92/88 36/46/46
f 64/48/48 24/88/84 65/49/49
f 47/51/51 17/101/94 66/52/52
f 80/54/54 67/107/97 15/55/55
f 68/57/57 25/83/79 69/58/58
f 44/60/60 14/100/93 70/61/61
f 77/63/63 71/82/78 12/64/64
f 76/66/66 72/71/71 26/67/67
f 75/69/69 41/104/72 11/25/25
f 72/71/71 75/69/69 74/70/70
f 10/37/37 28/12/12 75/72/69
f 28/12/12 2/11/11 41/74/72
f 27/75/73 76/66/66 73/68/68
f 1/77/75 40/38/38 76/78/66
f 40/38/38 10/37/37 72/73/71
f 39/80/76 77/63/63 30/65/65
f 9/76/74 73/68/68 77/63/63
f 73/68/68 26/67/67 71/82/78
f 78/62/62 70/61/61 25/83/79
f 42/3/3 78/62/62 68/57/57
f 4/2/2 44/60/60 78/62/62
f 79/59/59 69/58/58 13/84/80
f 3/81/77 30/65/65 79/59/59
f 12/64/64 68/57/57 79/59/59
f 80/54/54 33/56/56 7/86/82
f 69/58/58 80/54/54 43/87/83
f 25/83/79 67/107/97 80/54/54
f 81/53/53 66/52/52 24/88/84
f 45/6/6 81/53/53 64/48/48
f 8/5/5 47/51/51 81/53/53
f 82/50/50 65/49/49 16/89/85
f 7/86/82 33/56/56 82/50/50
f 33/56/56 15/55/55 64/48/48
f 83/47/47 36/46/46 5/14/14
f 65/49/49 83/47/47 46/90/86
f 24/88/84 63/45/45 83/47/47
f 84/42/42 62/44/44 23/40/40
f 48/9/9 84/42/42 60/91/87
f 6/8/8 50/19/19 84/42/42
f 37/15/15 85/39/39 61/41/41
f 5/14/14 36/46/46 85/39/39
f 18/92/88 60/91/87 85/39/39
f 86/36/36 40/38/38 1/77/75
f 19/93/89 61/41/41 86/36/36
f 61/41/41 23/40/40 59/94/90
f 56/95/91 87/35/35 58/96/34
f 13/84/80 43/87/83 87/35/35
f 7/86/82 34/33/33 87/35/35
f 39/80/76 88/30/30 57/32/32
f 3/81/77 31/85/81 88/30/30
f 31/85/81 13/84/80 56/95/91
f 89/29/29 49/28/28 1/77/75
f 9/76/74 57/32/32 89/97/29
f 57/32/32 22/31/31 55/98/27
f 90/24/24 54/26/26 21/99/92
f 44/60/60 90/24/24 52/21/21
f 4/2/2 29/108/98 90/24/24
f 91/23/23 53/22/22 17/101/94
f 32/102/95 91/23/23 47/51/51
f 14/100/93 52/21/21 91/23/23
f 92/20/20 50/19/19 6/8/8
f 53/22/22 92/20/20 35/103/96
f 21/99/92 51/18/18 92/20/20
f 51/18/18 93/16/16 38/17/17
f 21/99/92 54/26/26 93/16/16
f 54/26/26 11/25/25 41/104/72
f 55/27/27 94/13/13 37/15/15
f 22/31/31 58/96/34 94/106/13
f 58/34/34 16/89/85 46/90/86
f 59/94/90 95/10/10 28/12/12
f 23/40/40 62/44/44 95/10/10
f 62/44/44 20/43/43 38/17/17
f 96/7/7 48/9/9 18/92/88
f 66/52/52 96/7/7 63/45/45
f 17/101/94 35/103/96 96/7/7
f 67/107/97 97/4/4 45/6/6
f 25/83/79 70/61/61 97/4/4
f 70/61/61 14/100/93 32/102/95
f 71/82/78 98/1/1 42/3/3
f 26/67/67 74/70/70 98/1/1
f 74/70/70 11/25/25 29/108/98
