# Blender 4.2.1 LTS
# www.blender.org
mtllib box.mtl
o Cube.001
v -1.523512 -0.971410 0.244802
v -1.523512 0.028590 0.244802
v -1.523512 -0.971410 -0.250081
v -1.523512 0.028590 -0.250081
v 2.533417 -0.971410 0.244802
v 2.533417 0.028590 0.244802
v 2.533417 -0.971410 -0.250081
v 2.533417 0.028590 -0.250081
v -1.495048 -3.008976 1.597360
v -1.495048 -0.008976 1.597360
v -1.495048 -3.008976 -1.602640
v -1.495048 -0.008976 -1.602640
v 2.504952 -3.008976 1.597360
v 2.504952 -0.008976 1.597360
v 2.504952 -3.008976 -1.602640
v 2.504952 -0.008976 -1.602640
v -1.495048 -0.008976 -0.002640
v 2.504952 -0.008976 -0.002640
v 0.504952 -0.008976 1.597360
v 0.504952 -0.008976 -1.602640
v 1.200584 -0.584193 1.598701
v 2.207390 -0.584193 1.598701
v 1.200584 -0.248591 1.598701
v 2.207390 -0.248591 1.598701
v -1.322930 -2.817285 1.598700
v -0.899163 -2.817285 1.598700
v -1.322930 -2.393518 1.598700
v -0.899163 -2.393518 1.598700
v -0.830148 -2.817285 1.598700
v -0.406380 -2.817285 1.598700
v -0.830148 -2.393518 1.598700
v -0.406380 -2.393518 1.598700
v 1.200584 -0.584193 -1.603980
v 2.207390 -0.584193 -1.603980
v 1.200584 -0.248591 -1.603980
v 2.207390 -0.248591 -1.603980
v -1.322930 -2.817285 -1.603979
v -0.899163 -2.817285 -1.603979
v -1.322930 -2.393518 -1.603979
v -0.899163 -2.393518 -1.603979
v -0.830148 -2.817285 -1.603979
v -0.406380 -2.817285 -1.603979
v -0.830148 -2.393518 -1.603979
v -0.406380 -2.393518 -1.603979
v 0.504952 -0.008976 -1.602640
v 0.504952 -0.008976 1.597360
v 0.504952 -0.008976 -0.002640
v -1.523512 -0.971410 0.244802
v -1.523512 0.028590 0.244802
v -1.523512 -0.971410 -0.250081
v -1.523512 0.028590 -0.250081
v 2.533417 -0.971410 0.244802
v 2.533417 0.028590 0.244802
v 2.533417 -0.971410 -0.250081
v 2.533417 0.028590 -0.250081
vn -1.0000 -0.0000 -0.0000
vn 1.0000 -0.0000 -0.0000
vn -0.0000 1.0000 -0.0000
vn -0.0000 -0.0000 -1.0000
vn -0.0000 -0.0000 1.0000
vn -0.0000 -1.0000 -0.0000
vt 0.625000 0.000000
vt 0.375000 0.250000
vt 0.375000 0.000000
vt 0.625000 0.500000
vt 0.375000 0.750000
vt 0.375000 0.500000
vt 0.875000 0.500000
vt 0.625000 0.750000
vt 0.000000 0.150000
vt 0.431791 0.150000
vt 0.863583 1.000000
vt 0.500000 0.150000
vt 1.000000 1.000000
vt 0.863583 0.150000
vt 0.000000 1.000000
vt 1.000000 0.150000
vt 0.999900 0.000100
vt 0.500000 0.500000
vt 0.500000 0.000100
vt 0.999900 0.500000
vt 0.500000 0.999900
vt 1.000000 0.506269
vt 0.000000 0.000000
vt 0.000000 0.506269
vt 0.625798 0.907341
vt 0.376926 0.552665
vt 0.376926 0.907341
vt 0.294576 0.930304
vt 0.043081 0.553410
vt 0.041531 0.930304
vt 0.000100 0.999900
vt 0.000100 0.500000
vt 0.625000 0.250000
vt 0.875000 0.750000
vt 0.999900 0.999900
vt 1.000000 0.000000
vt 0.625798 0.552665
vt 0.296127 0.553410
vt 0.000100 0.000100
s 0
usemtl Material
f 10/9/1 17/10/1 11/11/1
f 12/9/4 20/12/4 15/13/4
f 16/14/2 18/10/2 13/15/2
f 14/16/5 19/12/5 9/15/5
f 15/16/6 9/15/6 11/9/6
f 16/17/3 47/18/3 18/19/3
f 45/20/3 17/21/3 47/18/3
f 10/31/3 47/18/3 17/21/3
f 46/32/3 18/19/3 47/18/3
f 11/11/1 9/15/1 10/9/1
f 17/10/1 12/14/1 11/11/1
f 15/13/4 11/15/4 12/9/4
f 20/12/4 16/16/4 15/13/4
f 13/15/2 15/11/2 16/14/2
f 18/10/2 14/9/2 13/15/2
f 9/15/5 13/13/5 14/16/5
f 19/12/5 10/9/5 9/15/5
f 15/16/6 13/13/6 9/15/6
f 16/17/3 45/20/3 47/18/3
f 45/20/3 12/35/3 17/21/3
f 10/31/3 46/32/3 47/18/3
f 46/32/3 14/39/3 18/19/3
usemtl Material.001
f 2/1/1 3/2/1 1/3/1
f 8/4/2 5/5/2 7/6/2
f 4/7/3 6/8/3 8/4/3
f 50/2/2 49/1/2 48/3/2
f 52/5/1 55/4/1 54/6/1
f 53/8/6 51/7/6 55/4/6
f 2/1/1 4/33/1 3/2/1
f 8/4/2 6/8/2 5/5/2
f 4/7/3 2/34/3 6/8/3
f 50/2/2 51/33/2 49/1/2
f 52/5/1 53/8/1 55/4/1
f 53/8/6 49/34/6 51/7/6
usemtl Material.002
f 22/22/5 23/23/5 21/24/5
f 26/25/5 27/26/5 25/27/5
f 30/28/5 31/29/5 29/30/5
f 35/23/4 34/22/4 33/24/4
f 39/26/4 38/25/4 37/27/4
f 43/29/4 42/28/4 41/30/4
f 22/22/5 24/36/5 23/23/5
f 26/25/5 28/37/5 27/26/5
f 30/28/5 32/38/5 31/29/5
f 35/23/4 36/36/4 34/22/4
f 39/26/4 40/37/4 38/25/4
f 43/29/4 44/38/4 42/28/4
