# Blender 4.3.2
# www.blender.org
mtllib fence.mtl
o cylinder
v 1.000000 0.812500 0.500000
v 0.000000 0.812500 0.500000
v 1.000000 0.851562 0.546875
v 0.000000 0.851562 0.546875
v 1.000000 0.890625 0.500000
v 0.000000 0.890625 0.500000
v 1.000000 0.851562 0.453125
v 0.000000 0.851562 0.453125
v 1.000000 0.773438 0.453125
v 0.000000 0.773438 0.453125
v 1.000000 0.734375 0.500000
v 0.000000 0.734375 0.500000
v 1.000000 0.773438 0.546875
v 0.000000 0.773438 0.546875
vn 1.0000 -0.0000 -0.0000
vn -0.0000 0.7682 0.6402
vn -1.0000 -0.0000 -0.0000
vn -0.0000 0.7682 -0.6402
vn -0.0000 -0.0000 -1.0000
vn -0.0000 -0.7682 -0.6402
vn -0.0000 -0.7682 0.6402
vn -0.0000 -0.0000 1.0000
vt 0.086047 0.710211
vt 0.087537 0.695710
vt 0.089028 0.681209
vt 0.850484 0.724712
vt 0.848993 0.739214
vt 0.851974 0.710211
vt 0.090518 0.666708
vt 0.853465 0.695710
vt 0.092009 0.652207
vt 0.854955 0.681209
s 1
usemtl m_61b8076a-fbd6-bc04-8d9e-752a0c661320
f 5/1/1 3/2/1 1/3/1
f 5/1/2 4/4/2 3/2/2
f 4/4/3 6/5/3 2/6/3
f 7/2/1 5/1/1 1/3/1
f 7/2/4 6/5/4 5/1/4
f 6/5/3 8/4/3 2/6/3
f 9/7/1 7/2/1 1/3/1
f 9/7/5 8/4/5 7/2/5
f 8/4/3 10/8/3 2/6/3
f 11/9/1 9/7/1 1/3/1
f 11/9/6 10/8/6 9/7/6
f 10/8/3 12/10/3 2/6/3
f 13/7/1 11/9/1 1/3/1
f 13/7/7 12/10/7 11/9/7
f 12/10/3 14/8/3 2/6/3
f 3/2/1 13/7/1 1/3/1
f 3/2/8 14/8/8 13/7/8
f 14/8/3 4/4/3 2/6/3
f 5/1/2 6/5/2 4/4/2
f 7/2/4 8/4/4 6/5/4
f 9/7/5 10/8/5 8/4/5
f 11/9/6 12/10/6 10/8/6
f 13/7/7 14/8/7 12/10/7
f 3/2/8 4/4/8 14/8/8
o cylinder.001
v 1.000000 0.562500 0.500000
v 0.000000 0.562500 0.500000
v 1.000000 0.585659 0.556452
v 0.000000 0.585659 0.556452
v 1.000000 0.637009 0.523493
v 0.000000 0.637009 0.523493
v 1.000000 0.613850 0.467041
v 0.000000 0.613850 0.467041
v 1.000000 0.539341 0.443548
v 0.000000 0.539341 0.443548
v 1.000000 0.487991 0.476507
v 0.000000 0.487991 0.476507
v 1.000000 0.511150 0.532959
v 0.000000 0.511150 0.532959
vn 1.0000 -0.0000 -0.0000
vn -0.0000 0.5402 0.8416
vn -1.0000 -0.0000 -0.0000
vn -0.0000 0.9252 -0.3795
vn -0.0000 0.3007 -0.9537
vn -0.0000 -0.5402 -0.8416
vn -0.0000 -0.9252 0.3795
vn -0.0000 -0.3007 0.9537
vt 0.086047 0.710211
vt 0.087537 0.695710
vt 0.089028 0.681209
vt 0.850484 0.724712
vt 0.848993 0.739214
vt 0.851974 0.710211
vt 0.090518 0.666708
vt 0.853465 0.695710
vt 0.092009 0.652207
vt 0.854955 0.681209
s 1
usemtl m_61b8076a-fbd6-bc04-8d9e-752a0c661320
f 19/11/9 17/12/9 15/13/9
f 19/11/10 18/14/10 17/12/10
f 18/14/11 20/15/11 16/16/11
f 21/12/9 19/11/9 15/13/9
f 21/12/12 20/15/12 19/11/12
f 20/15/11 22/14/11 16/16/11
f 23/17/9 21/12/9 15/13/9
f 23/17/13 22/14/13 21/12/13
f 22/14/11 24/18/11 16/16/11
f 25/19/9 23/17/9 15/13/9
f 25/19/14 24/18/14 23/17/14
f 24/18/11 26/20/11 16/16/11
f 27/17/9 25/19/9 15/13/9
f 27/17/15 26/20/15 25/19/15
f 26/20/11 28/18/11 16/16/11
f 17/12/9 27/17/9 15/13/9
f 17/12/16 28/18/16 27/17/16
f 28/18/11 18/14/11 16/16/11
f 19/11/10 20/15/10 18/14/10
f 21/12/12 22/14/12 20/15/12
f 23/17/13 24/18/13 22/14/13
f 25/19/14 26/20/14 24/18/14
f 27/17/15 28/18/15 26/20/15
f 17/12/16 18/14/16 28/18/16
o cylinder.002
v 1.000000 0.312500 0.500000
v 0.000000 0.312500 0.500000
v 1.000000 0.363850 0.532959
v 0.000000 0.363850 0.532959
v 1.000000 0.387009 0.476507
v 0.000000 0.387009 0.476507
v 1.000000 0.335659 0.443548
v 0.000000 0.335659 0.443548
v 1.000000 0.261150 0.467041
v 0.000000 0.261150 0.467041
v 1.000000 0.237991 0.523493
v 0.000000 0.237991 0.523493
v 1.000000 0.289341 0.556452
v 0.000000 0.289341 0.556452
vn 1.0000 -0.0000 -0.0000
vn -0.0000 0.9252 0.3795
vn -1.0000 -0.0000 -0.0000
vn -0.0000 0.5402 -0.8416
vn -0.0000 -0.3007 -0.9537
vn -0.0000 -0.9252 -0.3795
vn -0.0000 -0.5402 0.8416
vn -0.0000 0.3007 0.9537
vt 0.086047 0.710211
vt 0.087537 0.695710
vt 0.089028 0.681209
vt 0.850484 0.724712
vt 0.848993 0.739214
vt 0.851974 0.710211
vt 0.090518 0.666708
vt 0.853465 0.695710
vt 0.092009 0.652207
vt 0.854955 0.681209
s 1
usemtl m_61b8076a-fbd6-bc04-8d9e-752a0c661320
f 33/21/17 31/22/17 29/23/17
f 33/21/18 32/24/18 31/22/18
f 32/24/19 34/25/19 30/26/19
f 35/22/17 33/21/17 29/23/17
f 35/22/20 34/25/20 33/21/20
f 34/25/19 36/24/19 30/26/19
f 37/27/17 35/22/17 29/23/17
f 37/27/21 36/24/21 35/22/21
f 36/24/19 38/28/19 30/26/19
f 39/29/17 37/27/17 29/23/17
f 39/29/22 38/28/22 37/27/22
f 38/28/19 40/30/19 30/26/19
f 41/27/17 39/29/17 29/23/17
f 41/27/23 40/30/23 39/29/23
f 40/30/19 42/28/19 30/26/19
f 31/22/17 41/27/17 29/23/17
f 31/22/24 42/28/24 41/27/24
f 42/28/19 32/24/19 30/26/19
f 33/21/18 34/25/18 32/24/18
f 35/22/20 36/24/20 34/25/20
f 37/27/21 38/28/21 36/24/21
f 39/29/22 40/30/22 38/28/22
f 41/27/23 42/28/23 40/30/23
f 31/22/24 32/24/24 42/28/24
o cylinder.003
v 1.000000 0.000000 0.500000
v 1.000000 1.000000 0.500000
v 1.032360 0.000000 0.578125
v 1.032360 1.000000 0.578125
v 1.078125 0.000000 0.532360
v 1.078125 1.000000 0.532360
v 1.078125 -0.000000 0.467640
v 1.078125 1.000000 0.467640
v 1.032360 -0.000000 0.421875
v 1.032360 1.000000 0.421875
v 0.967640 -0.000000 0.421875
v 0.967640 1.000000 0.421875
v 0.921875 -0.000000 0.467640
v 0.921875 1.000000 0.467640
v 0.921875 0.000000 0.532360
v 0.921875 1.000000 0.532360
v 0.967640 0.000000 0.578125
v 0.967640 1.000000 0.578125
vn -0.0000 -1.0000 -0.0000
vn 0.7071 -0.0000 0.7071
vn -0.0000 1.0000 -0.0000
vn 1.0000 -0.0000 -0.0000
vn 0.7071 -0.0000 -0.7071
vn -0.0000 -0.0000 -1.0000
vn -0.7071 -0.0000 -0.7071
vn -1.0000 -0.0000 -0.0000
vn -0.7071 -0.0000 0.7071
vn -0.0000 -0.0000 1.0000
vt 0.330487 0.333121
vt 0.303579 0.322214
vt 0.330487 0.295884
vt 0.866079 0.324383
vt 0.303579 0.295884
vt 0.866079 0.295884
vt 0.341632 0.295884
vt 0.330486 0.322215
vt 0.332703 0.330286
vt 0.303579 0.330286
vt 0.318141 0.295884
vt 0.338735 0.295884
vt 0.338735 0.324383
vt 0.303579 0.310133
vt 0.303579 0.324383
vt 0.338735 0.310133
vt 0.330487 0.306791
vt 0.303579 0.333121
vt 0.303579 0.322215
vt 0.314725 0.295884
vt 0.341632 0.322215
vt 0.332703 0.295884
vt 0.318141 0.330286
vt 0.866079 0.321914
vt 0.303579 0.293415
vt 0.866079 0.293415
vt 0.303579 0.321914
s 1
usemtl m_61b8076a-fbd6-bc04-8d9e-752a0c661320
f 47/31/25 45/32/25 43/33/25
f 47/34/26 46/35/26 45/36/26
f 46/37/27 48/38/27 44/35/27
f 49/39/25 47/40/25 43/41/25
f 49/34/28 48/35/28 47/36/28
f 48/39/27 50/40/27 44/41/27
f 51/37/25 49/38/25 43/35/25
f 51/34/29 50/35/29 49/36/29
f 50/31/27 52/32/27 44/33/27
f 53/42/25 51/43/25 43/44/25
f 53/34/30 52/35/30 51/36/30
f 52/45/27 54/35/27 44/46/27
f 55/35/25 53/47/25 43/48/25
f 55/34/31 54/35/31 53/36/31
f 54/49/27 56/50/27 44/51/27
f 57/35/25 55/52/25 43/53/25
f 57/34/32 56/35/32 55/36/32
f 56/35/27 58/52/27 44/53/27
f 59/49/25 57/50/25 43/51/25
f 59/34/33 58/35/33 57/36/33
f 58/35/27 60/47/27 44/48/27
f 45/45/25 59/35/25 43/46/25
f 45/54/34 60/55/34 59/56/34
f 60/42/27 46/43/27 44/44/27
f 47/34/26 48/45/26 46/35/26
f 49/34/28 50/45/28 48/35/28
f 51/34/29 52/45/29 50/35/29
f 53/34/30 54/45/30 52/35/30
f 55/34/31 56/45/31 54/35/31
f 57/34/32 58/45/32 56/35/32
f 59/34/33 60/45/33 58/35/33
f 45/54/34 46/57/34 60/55/34
o cylinder.004
v 0.000000 0.000000 0.500000
v 0.000000 1.000000 0.500000
v 0.032360 0.000000 0.578125
v 0.032360 1.000000 0.578125
v 0.078125 0.000000 0.532360
v 0.078125 1.000000 0.532360
v 0.078125 -0.000000 0.467640
v 0.078125 1.000000 0.467640
v 0.032360 -0.000000 0.421875
v 0.032360 1.000000 0.421875
v -0.032360 -0.000000 0.421875
v -0.032360 1.000000 0.421875
v -0.078125 -0.000000 0.467640
v -0.078125 1.000000 0.467640
v -0.078125 0.000000 0.532360
v -0.078125 1.000000 0.532360
v -0.032360 0.000000 0.578125
v -0.032360 1.000000 0.578125
vn -0.0000 -1.0000 -0.0000
vn 0.7071 -0.0000 0.7071
vn -0.0000 1.0000 -0.0000
vn 1.0000 -0.0000 -0.0000
vn 0.7071 -0.0000 -0.7071
vn -0.0000 -0.0000 -1.0000
vn -0.7071 -0.0000 -0.7071
vn -1.0000 -0.0000 -0.0000
vn -0.7071 -0.0000 0.7071
vn -0.0000 -0.0000 1.0000
vt 0.330487 0.333121
vt 0.303579 0.322214
vt 0.330487 0.295884
vt 0.866079 0.324383
vt 0.303579 0.295884
vt 0.866079 0.295884
vt 0.341632 0.295884
vt 0.330486 0.322215
vt 0.332703 0.330286
vt 0.303579 0.330286
vt 0.318141 0.295884
vt 0.338735 0.295884
vt 0.338735 0.324383
vt 0.303579 0.310133
vt 0.303579 0.324383
vt 0.338735 0.310133
vt 0.330487 0.306791
vt 0.303579 0.333121
vt 0.303579 0.322215
vt 0.314725 0.295884
vt 0.341632 0.322215
vt 0.332703 0.295884
vt 0.318141 0.330286
vt 0.866079 0.321914
vt 0.303579 0.293415
vt 0.866079 0.293415
vt 0.303579 0.321914
s 1
usemtl m_61b8076a-fbd6-bc04-8d9e-752a0c661320
f 65/58/35 63/59/35 61/60/35
f 65/61/36 64/62/36 63/63/36
f 64/64/37 66/65/37 62/62/37
f 67/66/35 65/67/35 61/68/35
f 67/61/38 66/62/38 65/63/38
f 66/66/37 68/67/37 62/68/37
f 69/64/35 67/65/35 61/62/35
f 69/61/39 68/62/39 67/63/39
f 68/58/37 70/59/37 62/60/37
f 71/69/35 69/70/35 61/71/35
f 71/61/40 70/62/40 69/63/40
f 70/72/37 72/62/37 62/73/37
f 73/62/35 71/74/35 61/75/35
f 73/61/41 72/62/41 71/63/41
f 72/76/37 74/77/37 62/78/37
f 75/62/35 73/79/35 61/80/35
f 75/61/42 74/62/42 73/63/42
f 74/62/37 76/79/37 62/80/37
f 77/76/35 75/77/35 61/78/35
f 77/61/43 76/62/43 75/63/43
f 76/62/37 78/74/37 62/75/37
f 63/72/35 77/62/35 61/73/35
f 63/81/44 78/82/44 77/83/44
f 78/69/37 64/70/37 62/71/37
f 65/61/36 66/72/36 64/62/36
f 67/61/38 68/72/38 66/62/38
f 69/61/39 70/72/39 68/62/39
f 71/61/40 72/72/40 70/62/40
f 73/61/41 74/72/41 72/62/41
f 75/61/42 76/72/42 74/62/42
f 77/61/43 78/72/43 76/62/43
f 63/81/44 64/84/44 78/82/44
