# Blender 4.3.2
# www.blender.org
mtllib flower.mtl
o margarita_flower
v 0.509254 0.684285 0.509925
v 0.502692 0.844953 0.509039
v 0.514078 0.690456 0.515629
v 0.514066 0.844953 0.515605
v 0.514066 0.669558 0.528738
v 0.514066 0.844953 0.528738
v 0.502692 0.669558 0.535174
v 0.502692 0.844953 0.535305
v 0.491333 0.690458 0.528636
v 0.491319 0.844953 0.528738
v 0.494807 0.684398 0.518595
v 0.491319 0.844953 0.515605
v 0.499002 0.563477 0.503706
v 0.507041 0.557987 0.508948
v 0.515304 0.575554 0.523202
v 0.500280 0.584716 0.543017
v 0.484094 0.570775 0.529876
v 0.485553 0.565103 0.512708
v 0.500803 0.389141 0.495507
v 0.512057 0.387607 0.502101
v 0.512004 0.387445 0.515233
v 0.500697 0.388817 0.521771
v 0.489443 0.390350 0.515177
v 0.489496 0.390513 0.502045
v 0.503861 0.158900 0.492544
v 0.515115 0.157367 0.499137
v 0.515061 0.157204 0.512269
v 0.503755 0.158576 0.518808
v 0.492501 0.160110 0.512214
v 0.492554 0.160272 0.499082
v 0.520261 0.597040 0.510400
v 0.519303 0.573832 0.528702
v 0.565831 0.625139 0.500427
v 0.564767 0.622982 0.539211
v 0.621169 0.638556 0.476617
v 0.618799 0.634726 0.563021
v 0.679297 0.624538 0.494125
v 0.683881 0.624211 0.549196
v 0.713885 0.602561 0.510284
v 0.715156 0.601956 0.525553
v 0.503480 0.000366 0.490509
v 0.514606 0.001601 0.497376
v 0.514306 0.001165 0.510499
v 0.502880 -0.000505 0.516754
v 0.491753 -0.001740 0.509887
v 0.492053 -0.001304 0.496765
v 0.519361 0.852286 0.460785
v 0.507197 0.843995 0.522987
v 0.498964 0.859211 0.472847
v 0.453996 0.885909 0.223348
v 0.535736 0.886552 0.224841
v 0.491241 0.899327 0.194659
v 0.444462 0.880637 0.291602
v 0.546584 0.882120 0.294715
v 0.476851 0.851734 0.461521
v 0.458092 0.397949 0.515876
v 0.458194 0.394784 0.479322
v 0.439433 0.402465 0.489365
v 0.439626 0.403054 0.441704
v 0.369281 0.390163 0.474172
v 0.377296 0.395079 0.412226
v 0.318344 0.353578 0.431849
v 0.319449 0.355193 0.426327
v 0.472127 0.851539 0.463584
v 0.465797 0.857042 0.486802
v 0.254547 0.867762 0.344523
v 0.312486 0.876246 0.287470
v 0.258772 0.883320 0.298367
v 0.296924 0.864773 0.399045
v 0.370128 0.876106 0.328665
v 0.443091 0.846979 0.494309
v 0.440637 0.851664 0.499818
v 0.453122 0.859102 0.519774
v 0.204588 0.886270 0.569552
v 0.204292 0.884966 0.487807
v 0.175053 0.898727 0.532636
v 0.273050 0.881390 0.577710
v 0.273925 0.880443 0.475539
v 0.442303 0.852128 0.542302
v 0.443398 0.852013 0.544800
v 0.466487 0.857728 0.551408
v 0.320462 0.872979 0.759804
v 0.264424 0.879948 0.700685
v 0.274351 0.888304 0.754402
v 0.375733 0.869154 0.718478
v 0.306634 0.878578 0.643798
v 0.473615 0.848219 0.574472
v 0.474963 0.852905 0.575333
v 0.495943 0.860132 0.564512
v 0.523322 0.893028 0.815815
v 0.441879 0.891444 0.808855
v 0.483901 0.906013 0.841654
v 0.537559 0.886646 0.748480
v 0.435875 0.885322 0.738526
v 0.517427 0.853480 0.577450
v 0.520012 0.853351 0.576585
v 0.528644 0.858570 0.554053
v 0.723168 0.877814 0.717683
v 0.659278 0.885828 0.768060
v 0.713653 0.894148 0.762772
v 0.686940 0.872609 0.659051
v 0.606383 0.883315 0.720990
v 0.552266 0.848985 0.549225
v 0.556596 0.853610 0.540458
v 0.544860 0.860304 0.519796
v 0.794650 0.893072 0.480853
v 0.791198 0.893439 0.562535
v 0.822116 0.907060 0.518803
v 0.726786 0.886203 0.469682
v 0.721212 0.887312 0.571703
v 0.556885 0.853164 0.497941
v 0.555910 0.852970 0.495400
v 0.533012 0.857931 0.487621
v 0.688077 0.872828 0.285835
v 0.741124 0.882490 0.347289
v 0.733480 0.889484 0.293007
v 0.631071 0.868372 0.324665
v 0.696378 0.881152 0.402205
v 0.527205 0.847768 0.464466
v 0.542129 0.841874 0.476235
v 0.518539 0.848799 0.478479
v 0.583937 0.822989 0.233540
v 0.657283 0.823632 0.269650
v 0.629847 0.836407 0.223412
v 0.546284 0.817717 0.291261
v 0.637388 0.819200 0.337505
v 0.503341 0.841322 0.458824
v 0.498189 0.841127 0.458682
v 0.482586 0.846630 0.477005
v 0.351891 0.804842 0.258399
v 0.428592 0.813326 0.231398
v 0.375343 0.820399 0.218420
v 0.367061 0.801852 0.325766
v 0.463245 0.813186 0.293195
v 0.458843 0.836567 0.474144
v 0.454280 0.841252 0.478086
v 0.457092 0.848690 0.501457
v 0.210982 0.823349 0.440822
v 0.245476 0.822045 0.366711
v 0.199949 0.835806 0.394851
v 0.269476 0.818470 0.477319
v 0.313716 0.817523 0.385218
v 0.437721 0.841716 0.517246
v 0.437650 0.841602 0.519972
v 0.455737 0.847317 0.535772
v 0.234954 0.810059 0.662291
v 0.209375 0.817028 0.584953
v 0.195517 0.825384 0.637793
v 0.302552 0.806233 0.648391
v 0.271769 0.815657 0.551415
v 0.452380 0.837807 0.559678
v 0.453235 0.842494 0.561031
v 0.476825 0.849720 0.560158
v 0.394740 0.830107 0.799249
v 0.323987 0.828524 0.758317
v 0.348074 0.843093 0.805872
v 0.436260 0.823726 0.744361
v 0.348460 0.822402 0.692111
v 0.490767 0.843068 0.581003
v 0.493475 0.842939 0.581320
v 0.510870 0.848159 0.564597
v 0.617346 0.814894 0.795416
v 0.538098 0.822908 0.813841
v 0.589561 0.831228 0.832178
v 0.609491 0.809689 0.726943
v 0.510240 0.820394 0.748747
v 0.534302 0.838573 0.570273
v 0.541949 0.843198 0.564179
v 0.540114 0.849892 0.540488
v 0.782753 0.830152 0.611463
v 0.744895 0.830519 0.683924
v 0.791474 0.844140 0.657491
v 0.726082 0.823283 0.572494
v 0.677653 0.824392 0.662461
v 0.560291 0.842752 0.525821
v 0.560490 0.842558 0.523106
v 0.543072 0.847520 0.506329
v 0.769227 0.809907 0.389637
v 0.791106 0.819570 0.467816
v 0.807270 0.826564 0.415436
v 0.701120 0.805451 0.400540
v 0.727254 0.818232 0.498490
v 0.547664 0.837357 0.482902
v 0.501243 0.817310 0.521213
v 0.557143 0.839104 0.561826
v 0.479891 0.839104 0.586928
v 0.432145 0.839104 0.521213
v 0.479891 0.839104 0.455498
v 0.557143 0.839104 0.480599
v 0.522594 0.874369 0.586928
v 0.445342 0.874369 0.561826
v 0.445342 0.874369 0.480599
v 0.522594 0.874369 0.455498
v 0.570340 0.874369 0.521213
v 0.501243 0.850688 0.521213
vn 0.5088 0.0008 -0.8609
vn 0.7408 0.0260 -0.6712
vn 0.7487 0.0269 -0.6623
vn 1.0000 -0.0000 0.0009
vn 1.0000 0.0001 -0.0000
vn 0.4996 -0.0006 0.8662
vn 0.4928 -0.0000 0.8701
vn 0.4925 -0.0000 0.8703
vn -0.5000 -0.0006 0.8660
vn -0.4997 -0.0006 0.8662
vn -0.0000 1.0000 -0.0000
vn -0.9534 -0.0254 -0.3005
vn -0.9999 -0.0013 -0.0139
vn -0.9495 -0.0265 -0.3126
vn -0.5138 -0.0258 -0.8575
vn -0.5008 -0.0269 -0.8652
vn -0.5146 -0.0257 -0.8571
vn 0.5124 0.0489 0.8574
vn 0.7712 -0.0182 0.6363
vn -0.2905 -0.0601 0.9550
vn 0.7720 -0.0652 0.6323
vn 0.5194 -0.0472 0.8532
vn 0.4959 -0.0454 0.8672
vn -0.5154 0.0826 -0.8530
vn -0.5437 0.0886 -0.8346
vn -0.5124 0.0819 -0.8548
vn -0.4673 0.0406 0.8832
vn -0.6419 0.0799 0.7626
vn -0.6720 0.0871 0.7354
vn 0.9933 0.0597 0.0993
vn 0.9914 0.0547 0.1188
vn 0.9934 0.0603 0.0971
vn -0.9394 0.0550 -0.3384
vn -0.9890 0.0810 -0.1238
vn -0.9334 0.0528 -0.3548
vn 0.6895 -0.0201 -0.7240
vn 0.4489 0.0212 -0.8933
vn 0.5590 0.0115 -0.8291
vn 0.9999 0.0132 0.0042
vn 1.0000 0.0049 0.0046
vn 1.0000 0.0050 0.0041
vn 0.5647 0.0447 -0.8241
vn 0.5119 0.0494 -0.8576
vn 0.5668 0.0445 -0.8227
vn -0.5502 0.0382 -0.8341
vn -0.5001 0.0358 -0.8652
vn -0.5526 0.0384 -0.8325
vn -0.5783 -0.0889 0.8110
vn -0.5173 -0.0851 0.8515
vn -0.5805 -0.0890 0.8094
vn 0.8699 0.0071 -0.4932
vn 0.9993 0.0282 -0.0249
vn 0.9996 0.0292 0.0044
vn -0.9970 -0.0232 -0.0743
vn -0.9997 -0.0224 -0.0086
vn -0.9968 -0.0233 -0.0771
vn 0.5074 0.0098 -0.8617
vn 0.5236 0.0080 -0.8520
vn 0.5065 0.0098 -0.8622
vn -0.9999 -0.0132 -0.0042
vn -1.0000 -0.0050 -0.0046
vn 0.5002 -0.0045 0.8659
vn 0.4994 -0.0081 0.8663
vn 0.4998 -0.0087 0.8661
vn 0.5072 0.0178 -0.8616
vn -0.5002 0.0045 -0.8659
vn -0.4994 0.0082 -0.8663
vn -0.5073 -0.0178 0.8616
vn 0.8808 -0.3753 -0.2888
vn 0.8068 -0.4285 -0.4067
vn 0.9369 -0.3112 -0.1595
vn 0.6472 -0.6242 -0.4377
vn 0.5868 -0.7846 -0.2000
vn 0.6566 -0.4836 -0.5788
vn 0.2247 -0.9736 -0.0411
vn 0.2248 -0.9735 -0.0411
vn 0.2322 -0.9715 -0.0477
vn -0.1909 -0.9814 -0.0225
vn -0.1943 -0.9806 -0.0256
vn -0.1580 -0.9874 0.0073
vn -0.5541 -0.8318 0.0346
vn -0.5508 -0.8341 0.0292
vn -0.5582 -0.8286 0.0416
vn -0.4826 0.0140 -0.8757
vn -0.4817 0.0141 -0.8762
vn -0.5074 -0.0100 0.8617
vn -0.5236 -0.0082 0.8520
vn -0.5245 -0.0081 0.8513
vn 0.9998 -0.0050 0.0217
vn -0.9998 0.0049 -0.0217
vn -0.9997 0.0049 -0.0227
vn 0.4826 -0.0139 0.8757
vn 0.1964 0.9710 0.1362
vn 0.3686 0.9165 0.1557
vn 0.4003 0.9025 0.1589
vn 0.2690 0.9567 0.1115
vn -0.3400 0.9337 0.1120
vn -0.2412 0.9594 0.1461
vn -0.3711 0.9139 0.1647
vn -0.2345 0.9612 0.1451
vn -0.2166 -0.9757 0.0327
vn -0.2050 -0.9769 0.0598
vn -0.1944 -0.9773 0.0841
vn -0.3671 -0.9298 0.0255
vn -0.3606 -0.9319 0.0392
vn -0.3848 -0.9229 -0.0130
vn 0.1660 -0.9856 -0.0317
vn 0.1621 -0.9860 -0.0402
vn 0.1538 -0.9864 -0.0584
vn 0.5735 -0.8192 0.0015
vn 0.6079 -0.7922 -0.0541
vn 0.5690 -0.8223 0.0084
vn 0.1368 0.9906 -0.0097
vn 0.2760 0.9536 -0.1204
vn 0.3017 0.9429 -0.1412
vn 0.1712 0.9821 -0.0792
vn -0.2504 0.9013 0.3534
vn -0.1599 0.9378 0.3081
vn -0.2327 0.8810 0.4119
vn -0.1561 0.9402 0.3026
vn 0.1290 0.9664 -0.2224
vn 0.1449 0.9078 -0.3936
vn 0.1474 0.8931 -0.4251
vn 0.1028 0.9502 -0.2941
vn 0.1167 0.9418 0.3151
vn 0.1486 0.9652 0.2151
vn 0.1701 0.9228 0.3456
vn 0.1474 0.9669 0.2083
vn -0.0097 0.9871 -0.1600
vn -0.1177 0.9466 -0.3003
vn -0.1381 0.9352 -0.3261
vn -0.0785 0.9776 -0.1955
vn 0.3468 0.9079 0.2354
vn 0.3029 0.9422 0.1433
vn 0.4056 0.8874 0.2192
vn 0.2976 0.9445 0.1394
vn -0.2115 0.9625 -0.1701
vn -0.3805 0.9029 -0.1999
vn -0.4116 0.8881 -0.2049
vn -0.2851 0.9467 -0.1500
vn 0.3229 0.9401 -0.1094
vn 0.2260 0.9624 -0.1506
vn 0.3580 0.9200 -0.1594
vn 0.2192 0.9641 -0.1501
vn -0.1617 0.9865 -0.0269
vn -0.3110 0.9479 0.0691
vn -0.3386 0.9369 0.0873
vn -0.2032 0.9784 0.0387
vn 0.2641 0.9007 -0.3448
vn 0.1683 0.9357 -0.3102
vn 0.2532 0.8789 -0.4043
vn 0.1640 0.9381 -0.3052
vn -0.1640 0.9669 0.1954
vn -0.1863 0.9114 0.3669
vn -0.1898 0.8973 0.3985
vn -0.1407 0.9530 0.2685
vn -0.1262 0.9318 -0.3404
vn -0.1632 0.9564 -0.2424
vn -0.1776 0.9108 -0.3728
vn -0.1624 0.9582 -0.2356
vn -0.0231 0.9900 0.1390
vn 0.0794 0.9553 0.2849
vn 0.0988 0.9450 0.3119
vn 0.0442 0.9831 0.1777
vn -0.3587 0.8934 -0.2705
vn -0.3201 0.9307 -0.1773
vn -0.4176 0.8716 -0.2566
vn -0.3150 0.9332 -0.1732
vn 0.2888 0.9541 0.0796
vn 0.2999 0.9503 0.0835
vn 0.2877 0.9544 0.0792
vn -0.4905 0.8367 -0.2436
vn 0.4925 0.8471 0.1997
vn -0.3101 0.9333 -0.1811
vn -0.2611 0.9503 -0.1698
vn -0.3126 0.9323 -0.1817
vn 0.1694 0.9710 -0.1689
vn 0.1532 0.9742 -0.1658
vn 0.1499 0.9748 -0.1651
vn -0.5698 0.8053 0.1640
vn 0.4270 0.8725 -0.2375
vn -0.4384 0.8946 0.0866
vn -0.4000 0.9136 0.0728
vn -0.3965 0.9152 0.0716
vn 0.0819 0.9465 -0.3121
vn 0.0851 0.9430 -0.3218
vn 0.0816 0.9469 -0.3111
vn -0.2314 0.8441 0.4838
vn 0.1932 0.8400 -0.5070
vn -0.1691 0.9411 0.2929
vn -0.1582 0.9573 0.2419
vn -0.1696 0.9402 0.2955
vn -0.1577 0.9683 -0.1937
vn -0.1550 0.9717 -0.1781
vn -0.1545 0.9724 -0.1749
vn 0.1614 0.8117 0.5614
vn -0.2201 0.8681 -0.4450
vn 0.0845 0.9029 0.4214
vn 0.0712 0.9219 0.3808
vn 0.0700 0.9235 0.3772
vn -0.2958 0.9465 -0.1293
vn -0.3051 0.9429 -0.1334
vn -0.2948 0.9468 -0.1289
vn 0.4691 0.8451 0.2566
vn -0.4801 0.8393 -0.2551
vn 0.2844 0.9426 0.1750
vn 0.2345 0.9590 0.1592
vn 0.2870 0.9417 0.1758
vn -0.1993 0.9725 0.1203
vn -0.1826 0.9760 0.1188
vn -0.1791 0.9767 0.1185
vn 0.5758 0.8076 -0.1275
vn -0.4610 0.8722 0.1636
vn 0.4340 0.8985 -0.0664
vn 0.3933 0.9176 -0.0573
vn 0.3897 0.9192 -0.0564
vn -0.1080 0.9541 0.2792
vn -0.1121 0.9504 0.2902
vn -0.1076 0.9545 0.2780
vn 0.2369 0.8376 -0.4922
vn -0.2304 0.8465 0.4800
vn 0.1677 0.9348 -0.3132
vn 0.1548 0.9519 -0.2643
vn 0.1683 0.9338 -0.3157
vn 0.1366 0.9757 0.1716
vn 0.1343 0.9789 0.1543
vn 0.1338 0.9795 0.1508
vn -0.1454 0.8007 -0.5811
vn 0.1929 0.8772 0.4397
vn -0.0799 0.8895 -0.4498
vn -0.0692 0.9087 -0.4117
vn -0.0683 0.9103 -0.4083
vn 0.1123 -0.9317 0.3455
vn 0.3632 -0.9317 -0.0000
vn -0.2939 -0.9317 0.2135
vn -0.2939 -0.9317 -0.2135
vn 0.1123 -0.9317 -0.3455
vn 0.9366 -0.3505 -0.0000
vn 0.2894 -0.3505 0.8907
vn -0.7577 -0.3505 0.5505
vn -0.7577 -0.3505 -0.5505
vn 0.2894 -0.3505 -0.8907
vn 0.7577 0.3505 0.5505
vn -0.2894 0.3505 0.8907
vn -0.9366 0.3505 -0.0000
vn -0.2894 0.3505 -0.8907
vn 0.7577 0.3505 -0.5505
vn -0.3156 0.9208 -0.2293
vn 0.1205 0.9208 -0.3710
vn 0.3901 0.9208 -0.0000
vn 0.1205 0.9208 0.3710
vn -0.3156 0.9208 0.2293
vn 0.5000 -0.0001 -0.8660
vn 0.5000 -0.0006 0.8660
vn -1.0000 -0.0001 -0.0000
vn -0.4998 -0.0270 -0.8657
vn 0.4914 0.0663 0.8684
vn -0.8146 -0.0448 0.5783
vn 0.7802 -0.0658 0.6220
vn -0.5465 0.0892 -0.8327
vn -0.4475 0.0363 0.8936
vn 0.9912 0.0542 0.1206
vn -0.9904 0.0823 -0.1114
vn 0.7811 -0.0342 -0.6235
vn -0.0463 0.0528 -0.9975
vn 0.5099 0.0495 -0.8588
vn -0.4970 0.0356 -0.8670
vn -0.5123 -0.0848 0.8546
vn 0.8617 0.0064 -0.5073
vn -0.9997 -0.0223 -0.0043
vn 0.5246 0.0079 -0.8513
vn -1.0000 -0.0050 -0.0041
vn -0.4998 0.0087 -0.8661
vn 0.6164 -0.5032 -0.6057
vn 0.5193 -0.8540 -0.0333
vn 0.2203 -0.9747 -0.0372
vn -0.2201 -0.9742 -0.0492
vn -0.5401 -0.8415 0.0116
vn -0.5065 -0.0101 0.8622
vn 0.9997 -0.0051 0.0227
vn 0.4817 -0.0140 0.8762
vn 0.1877 0.9729 0.1351
vn -0.3917 0.9047 0.1674
vn -0.2358 -0.9717 -0.0130
vn -0.3407 -0.9368 0.0802
vn 0.1751 -0.9845 -0.0114
vn 0.6329 -0.7680 -0.0979
vn 0.1297 0.9915 -0.0042
vn -0.2441 0.8702 0.4280
vn 0.1281 0.9685 -0.2137
vn 0.1733 0.9142 0.3663
vn -0.0043 0.9882 -0.1529
vn 0.4216 0.8768 0.2312
vn -0.2029 0.9646 -0.1685
vn 0.3789 0.9114 -0.1606
vn -0.1542 0.9875 -0.0317
vn 0.2666 0.8680 -0.4190
vn -0.1627 0.9688 0.1867
vn -0.1796 0.9017 -0.3934
vn -0.0282 0.9909 0.1316
vn -0.4328 0.8604 -0.2691
vn 0.3010 0.9499 0.0839
vn -0.2520 0.9531 -0.1677
vn 0.1702 0.9708 -0.1690
vn -0.4422 0.8926 0.0880
vn 0.0854 0.9426 -0.3227
vn -0.1561 0.9600 0.2325
vn -0.1579 0.9681 -0.1945
vn 0.0858 0.9009 0.4254
vn -0.3060 0.9426 -0.1338
vn 0.2252 0.9617 0.1562
vn -0.2001 0.9724 0.1204
vn 0.4380 0.8965 -0.0673
vn -0.1125 0.9500 0.2913
vn 0.1523 0.9548 -0.2552
vn 0.1367 0.9755 0.1724
vn -0.0810 0.8875 -0.4536
vt 0.736823 0.705087
vt 0.748879 0.698109
vt 0.743771 0.704149
vt 0.748866 0.684227
vt 0.736823 0.677412
vt 0.736823 0.677274
vt 0.724794 0.684335
vt 0.724779 0.684227
vt 0.724779 0.698134
vt 0.728473 0.694968
vt 0.734268 0.669107
vt 0.750177 0.690089
vt 0.734710 0.691605
vt 0.746683 0.698528
vt 0.718674 0.701201
vt 0.717128 0.683022
vt 0.755427 0.703646
vt 0.741428 0.705183
vt 0.732915 0.710734
vt 0.746739 0.712434
vt 0.749920 0.701666
vt 0.749977 0.715572
vt 0.734822 0.719416
vt 0.722849 0.712492
vt 0.722793 0.698587
vt 0.737656 0.724708
vt 0.738060 0.722554
vt 0.726031 0.701725
vt 0.737947 0.694742
vt 0.726087 0.715630
vt 0.802554 0.673137
vt 0.754411 0.684265
vt 0.803681 0.714206
vt 0.859769 0.647924
vt 0.923832 0.720879
vt 0.928685 0.662564
vt 0.961802 0.687600
vt 0.725557 0.718084
vt 0.725239 0.704189
vt 0.737021 0.696917
vt 0.749438 0.717436
vt 0.749120 0.703541
vt 0.291856 0.700811
vt 0.268434 0.542836
vt 0.281426 0.550519
vt 0.239790 0.701762
vt 0.233717 0.658285
vt 0.254348 0.550050
vt 0.298766 0.656302
vt 0.263514 0.720036
vt 0.689595 0.697847
vt 0.689703 0.736555
vt 0.669837 0.725919
vt 0.670041 0.776389
vt 0.595552 0.742007
vt 0.604039 0.807603
vt 0.542784 0.792672
vt 0.149650 0.660918
vt 0.247307 0.533946
vt 0.251339 0.548736
vt 0.112745 0.624575
vt 0.139738 0.589846
vt 0.232844 0.529165
vt 0.186368 0.634677
vt 0.115436 0.653976
vt 0.080733 0.533306
vt 0.239233 0.512944
vt 0.231280 0.525656
vt 0.080922 0.481237
vt 0.124530 0.476040
vt 0.232342 0.498594
vt 0.125088 0.541121
vt 0.062109 0.504751
vt 0.119036 0.397707
vt 0.247746 0.492794
vt 0.233039 0.497003
vt 0.154731 0.360049
vt 0.189938 0.386373
vt 0.252286 0.478102
vt 0.145923 0.433943
vt 0.125359 0.363490
vt 0.232071 0.328805
vt 0.266509 0.484447
vt 0.253146 0.477554
vt 0.283949 0.324372
vt 0.293018 0.367263
vt 0.280194 0.476206
vt 0.228247 0.373603
vt 0.258839 0.307913
vt 0.370550 0.354791
vt 0.287339 0.491109
vt 0.281841 0.476757
vt 0.411247 0.386880
vt 0.388171 0.424228
vt 0.302386 0.494184
vt 0.336857 0.384773
vt 0.405187 0.358159
vt 0.454581 0.485706
vt 0.297669 0.512930
vt 0.305144 0.499769
vt 0.456780 0.537736
vt 0.413552 0.544852
vt 0.305328 0.526851
vt 0.410001 0.479866
vt 0.474275 0.513562
vt 0.422685 0.622813
vt 0.290121 0.533425
vt 0.304707 0.528470
vt 0.388895 0.661959
vt 0.352583 0.637225
vt 0.286423 0.548175
vt 0.394182 0.587834
vt 0.417816 0.657390
vt 0.295929 0.540677
vt 0.351803 0.701721
vt 0.280903 0.539249
vt 0.322560 0.695270
vt 0.298575 0.658502
vt 0.271222 0.551768
vt 0.369280 0.672268
vt 0.356607 0.629046
vt 0.223608 0.696634
vt 0.258001 0.540187
vt 0.267940 0.551858
vt 0.174751 0.679435
vt 0.184414 0.636524
vt 0.242877 0.542010
vt 0.245681 0.657270
vt 0.189689 0.704901
vt 0.239970 0.539499
vt 0.077967 0.592518
vt 0.241762 0.524612
vt 0.084995 0.563235
vt 0.122254 0.539987
vt 0.229423 0.514554
vt 0.106967 0.610442
vt 0.150434 0.598653
vt 0.083971 0.471426
vt 0.240899 0.502754
vt 0.229377 0.512818
vt 0.100264 0.422164
vt 0.143323 0.431018
vt 0.238761 0.487526
vt 0.123715 0.492789
vt 0.075144 0.437768
vt 0.239305 0.486664
vt 0.172319 0.330705
vt 0.254331 0.487220
vt 0.202045 0.334924
vt 0.228492 0.369887
vt 0.263213 0.473942
vt 0.156977 0.360997
vt 0.172565 0.403169
vt 0.293361 0.325629
vt 0.276017 0.484392
vt 0.264937 0.473741
vt 0.343841 0.337365
vt 0.338837 0.380982
vt 0.290943 0.480777
vt 0.275616 0.367093
vt 0.326142 0.313949
vt 0.295814 0.484659
vt 0.454757 0.425221
vt 0.294645 0.499750
vt 0.449202 0.454540
vt 0.413103 0.479363
vt 0.307497 0.509092
vt 0.425087 0.408384
vt 0.382255 0.422055
vt 0.454522 0.546040
vt 0.296530 0.521508
vt 0.307624 0.510822
vt 0.440586 0.595839
vt 0.397203 0.588894
vt 0.299454 0.536431
vt 0.413850 0.526501
vt 0.464819 0.579406
vt 0.832987 0.175025
vt 0.880871 0.140236
vt 0.814698 0.118735
vt 0.880871 0.209815
vt 0.773799 0.175025
vt 0.814698 0.231316
vt 0.892175 0.175025
vt 0.851277 0.118735
vt 0.785103 0.140236
vt 0.785103 0.209815
vt 0.851277 0.231316
vt 0.748866 0.698134
vt 0.862279 0.739418
vt 0.960457 0.703768
vt 0.541614 0.786824
s 1
usemtl Material
f 2/1/1 3/2/2 1/3/3
f 3/2/4 6/4/5 5/4/4
f 6/4/6 7/5/7 5/4/8
f 8/6/9 9/7/10 7/5/10
f 2/1/11 10/8/11 6/4/11
f 9/7/12 12/9/13 11/10/14
f 11/10/15 2/1/16 1/3/17
f 5/4/18 16/11/19 15/12/20
f 15/12/21 22/13/22 21/14/23
f 1/3/24 18/15/25 11/10/26
f 7/5/27 17/16/28 16/11/29
f 5/4/30 31/17/31 3/2/32
f 11/10/33 17/16/34 9/7/35
f 3/2/36 14/18/37 13/19/38
f 20/20/39 27/21/40 26/22/41
f 14/18/42 19/23/43 13/19/44
f 13/19/45 24/24/46 18/15/47
f 17/16/48 22/13/49 16/11/50
f 14/18/51 21/14/52 20/20/53
f 18/15/54 23/25/55 17/16/56
f 26/22/57 41/26/58 25/27/59
f 24/24/60 29/28/61 23/25/60
f 21/14/62 28/29/63 27/21/64
f 20/20/65 25/27/65 19/23/65
f 19/23/66 30/30/67 24/24/66
f 22/13/68 29/28/68 28/29/68
f 31/17/69 15/12/70 14/18/71
f 31/17/72 34/31/73 32/32/74
f 33/33/75 36/34/76 34/31/77
f 36/34/78 37/35/79 38/36/80
f 37/35/81 40/37/82 38/36/83
f 30/30/67 41/26/84 46/38/85
f 28/29/86 45/39/87 44/40/88
f 27/21/40 42/41/89 26/22/41
f 29/28/61 46/38/90 45/39/91
f 28/29/63 43/42/92 27/21/64
f 51/43/93 49/44/94 47/45/95
f 50/46/96 53/47/96 55/48/96
f 51/43/97 47/45/97 54/49/97
f 50/46/98 49/44/99 52/50/100
f 24/24/101 56/51/102 57/52/103
f 57/52/104 58/53/105 59/54/106
f 59/54/107 60/55/108 61/56/109
f 60/55/110 63/57/111 61/56/112
f 67/58/113 65/59/114 64/60/115
f 66/61/116 69/62/116 71/63/116
f 67/58/117 64/60/117 70/64/117
f 66/61/118 65/59/119 68/65/120
f 75/66/121 73/67/122 72/68/123
f 74/69/124 77/70/124 79/71/124
f 75/66/125 72/68/125 78/72/125
f 74/69/126 73/67/127 76/73/128
f 83/74/129 81/75/130 80/76/131
f 82/77/132 85/78/132 87/79/132
f 83/74/133 80/76/133 86/80/133
f 82/77/134 81/75/135 84/81/136
f 91/82/137 89/83/138 88/84/139
f 90/85/140 93/86/140 95/87/140
f 91/82/141 88/84/141 94/88/141
f 90/85/142 89/83/143 92/89/144
f 99/90/145 97/91/146 96/92/147
f 98/93/148 101/94/148 103/95/148
f 99/90/149 96/92/149 102/96/149
f 98/93/150 97/91/151 100/97/152
f 107/98/153 105/99/154 104/100/155
f 106/101/156 109/102/156 111/103/156
f 107/98/157 104/100/157 110/104/157
f 106/101/158 105/99/159 108/105/160
f 115/106/161 113/107/162 112/108/163
f 114/109/164 117/110/164 119/111/164
f 115/106/165 112/108/165 118/112/165
f 114/109/166 113/107/167 116/113/168
f 120/114/169 124/115/170 121/116/171
f 122/117/172 125/118/172 127/119/172
f 123/120/173 120/114/173 126/121/173
f 122/117/174 121/116/175 124/115/176
f 131/122/177 129/123/178 128/124/179
f 130/125/180 133/126/180 135/127/180
f 131/122/181 128/124/181 134/128/181
f 132/129/182 135/127/183 129/123/184
f 136/130/185 140/131/186 137/132/187
f 138/133/188 141/134/188 143/135/188
f 139/136/189 136/130/189 142/137/189
f 138/133/190 137/132/191 140/131/192
f 147/138/193 145/139/194 144/140/195
f 146/141/196 149/142/196 151/143/196
f 147/138/197 144/140/197 150/144/197
f 148/145/198 151/143/199 145/139/200
f 152/146/201 156/147/202 153/148/203
f 154/149/204 157/150/204 159/151/204
f 155/152/205 152/146/205 158/153/205
f 154/149/206 153/148/207 156/147/208
f 163/154/209 161/155/210 160/156/211
f 162/157/212 165/158/212 167/159/212
f 163/154/213 160/156/213 166/160/213
f 164/161/214 167/159/215 161/155/216
f 168/162/217 172/163/218 169/164/219
f 170/165/220 173/166/220 175/167/220
f 171/168/221 168/162/221 174/169/221
f 170/165/222 169/164/223 172/163/224
f 179/170/225 177/171/226 176/172/227
f 178/173/228 181/174/228 183/175/228
f 179/170/229 176/172/229 182/176/229
f 180/177/230 183/175/231 177/171/232
f 184/178/233 185/179/233 186/180/233
f 185/179/234 184/178/234 189/181/234
f 184/178/235 186/180/235 187/182/235
f 184/178/236 187/182/236 188/183/236
f 184/178/237 188/183/237 189/181/237
f 185/179/238 189/181/238 194/184/238
f 186/180/239 185/179/239 190/185/239
f 187/182/240 186/180/240 191/186/240
f 188/183/241 187/182/241 192/187/241
f 189/181/242 188/183/242 193/188/242
f 185/179/243 194/184/243 190/185/243
f 186/180/244 190/185/244 191/186/244
f 187/182/245 191/186/245 192/187/245
f 188/183/246 192/187/246 193/188/246
f 189/181/247 193/188/247 194/184/247
f 190/185/248 194/184/248 195/178/248
f 191/186/249 190/185/249 195/178/249
f 192/187/250 191/186/250 195/178/250
f 193/188/251 192/187/251 195/178/251
f 194/184/252 193/188/252 195/178/252
f 2/1/1 4/189/253 3/2/2
f 3/2/4 4/189/5 6/4/5
f 6/4/6 8/6/254 7/5/7
f 8/6/9 10/8/9 9/7/10
f 6/4/11 4/189/11 2/1/11
f 2/1/11 12/9/11 10/8/11
f 10/8/11 8/6/11 6/4/11
f 9/7/12 10/8/255 12/9/13
f 11/10/15 12/9/256 2/1/16
f 5/4/18 7/5/257 16/11/19
f 15/12/20 32/32/258 5/4/18
f 15/12/21 16/11/259 22/13/22
f 1/3/24 13/19/260 18/15/25
f 7/5/27 9/7/261 17/16/28
f 5/4/30 32/32/262 31/17/31
f 11/10/33 18/15/263 17/16/34
f 13/19/38 1/3/264 3/2/36
f 3/2/36 31/17/265 14/18/37
f 20/20/39 21/14/39 27/21/40
f 14/18/42 20/20/266 19/23/43
f 13/19/45 19/23/267 24/24/46
f 17/16/48 23/25/268 22/13/49
f 14/18/51 15/12/269 21/14/52
f 18/15/54 24/24/270 23/25/55
f 26/22/57 42/41/271 41/26/58
f 24/24/60 30/30/272 29/28/61
f 21/14/62 22/13/62 28/29/63
f 20/20/65 26/22/65 25/27/65
f 19/23/66 25/27/273 30/30/67
f 22/13/68 23/25/68 29/28/68
f 31/17/69 32/32/274 15/12/70
f 31/17/72 33/33/275 34/31/73
f 33/33/75 35/190/276 36/34/76
f 36/34/78 35/190/277 37/35/79
f 37/35/81 39/191/278 40/37/82
f 30/30/67 25/27/273 41/26/84
f 28/29/86 29/28/279 45/39/87
f 27/21/40 43/42/280 42/41/89
f 29/28/61 30/30/272 46/38/90
f 28/29/63 44/40/281 43/42/92
f 51/43/93 52/50/282 49/44/94
f 50/46/98 55/48/283 49/44/99
f 24/24/101 23/25/284 56/51/102
f 57/52/104 56/51/285 58/53/105
f 59/54/107 58/53/286 60/55/108
f 60/55/110 62/192/287 63/57/111
f 67/58/113 68/65/288 65/59/114
f 66/61/118 71/63/289 65/59/119
f 75/66/121 76/73/290 73/67/122
f 74/69/126 79/71/291 73/67/127
f 83/74/129 84/81/292 81/75/130
f 82/77/134 87/79/293 81/75/135
f 91/82/137 92/89/294 89/83/138
f 90/85/142 95/87/295 89/83/143
f 99/90/145 100/97/296 97/91/146
f 98/93/150 103/95/297 97/91/151
f 107/98/153 108/105/298 105/99/154
f 106/101/158 111/103/299 105/99/159
f 115/106/161 116/113/300 113/107/162
f 114/109/166 119/111/301 113/107/167
f 120/114/169 123/120/302 124/115/170
f 122/117/174 127/119/303 121/116/175
f 131/122/177 132/129/304 129/123/178
f 132/129/182 130/125/305 135/127/183
f 136/130/185 139/136/306 140/131/186
f 138/133/190 143/135/307 137/132/191
f 147/138/193 148/145/308 145/139/194
f 148/145/198 146/141/309 151/143/199
f 152/146/201 155/152/310 156/147/202
f 154/149/206 159/151/311 153/148/207
f 163/154/209 164/161/312 161/155/210
f 164/161/214 162/157/313 167/159/215
f 168/162/217 171/168/314 172/163/218
f 170/165/222 175/167/315 169/164/223
f 179/170/225 180/177/316 177/171/226
f 180/177/230 178/173/317 183/175/231
