# Blender 4.2.1 LTS
# www.blender.org
mtllib gaspump.mtl
o Cube
v 1.293349 0.000000 0.896675
v 1.293349 1.983373 0.896675
v -0.293349 0.000000 0.896675
v -0.293349 1.983373 0.896675
v 1.293349 0.000000 0.103325
v 1.293349 1.983373 0.103325
v -0.293349 0.000000 0.103325
v -0.293349 1.983373 0.103325
v 0.500000 0.000000 0.896675
v 0.500000 1.983373 0.896675
v 0.500000 0.000000 0.103325
v 0.500000 1.983373 0.103325
v 1.184264 0.000000 0.896675
v 1.184264 1.983373 0.103325
v 1.184264 1.983373 0.896675
v 1.184264 0.000000 0.103325
v -0.184264 1.983373 0.896675
v -0.184264 0.000000 0.103325
v -0.184264 0.000000 0.896675
v -0.184264 1.983373 0.103325
v -0.184264 2.776722 0.896675
v -0.293349 2.776722 0.896675
v -0.293349 2.776722 0.103325
v 1.184264 2.776722 0.103325
v 1.293349 2.776722 0.103325
v 1.293349 2.776722 0.896675
v 1.184264 2.776722 0.896675
v -0.184264 2.776722 0.103325
v -0.184264 2.895725 0.896675
v -0.293349 2.895725 0.896675
v -0.293349 2.895725 0.103325
v 1.184264 2.895725 0.103325
v 1.293349 2.895725 0.103325
v 1.293349 2.895725 0.896675
v 1.184264 2.895725 0.896675
v -0.184264 2.895725 0.103325
v 1.238806 0.000000 0.896675
v 1.293349 0.595012 0.896675
v -0.238806 1.983373 0.896675
v -0.293349 0.595012 0.896675
v -0.293349 0.000000 0.500000
v -0.293349 1.983373 0.500000
v -0.293349 0.595012 0.103325
v -0.238806 0.000000 0.103325
v 1.238806 1.983373 0.103325
v 1.293349 0.595012 0.103325
v 1.293349 0.000000 0.500000
v 1.293349 1.983373 0.500000
v 0.157868 0.000000 0.896675
v 0.842132 1.983373 0.896675
v 0.842132 0.000000 0.103325
v 0.157868 1.983373 0.103325
v 0.500000 1.983373 0.500000
v 0.500000 0.000000 0.500000
v 0.500000 0.595012 0.103325
v 0.500000 0.595012 0.896675
v 0.842132 0.000000 0.896675
v 0.842132 1.983373 0.103325
v 1.238806 1.983373 0.896675
v 1.238806 0.000000 0.103325
v 1.184264 0.595012 0.896675
v 1.184264 1.983373 0.500000
v 1.184264 0.000000 0.500000
v 1.184264 0.595012 0.103325
v 0.157868 1.983373 0.896675
v 0.157868 0.000000 0.103325
v -0.238806 0.000000 0.896675
v -0.238806 1.983373 0.103325
v -0.184264 0.595012 0.103325
v -0.184264 0.000000 0.500000
v -0.184264 1.983373 0.500000
v -0.184264 0.595012 0.896675
v -0.238806 2.776722 0.896675
v -0.293349 2.776722 0.500000
v 1.238806 2.776722 0.103325
v 1.293349 2.776722 0.500000
v 1.238806 2.776722 0.896675
v 1.184264 2.776722 0.500000
v -0.238806 2.776722 0.103325
v -0.184264 2.776722 0.500000
v -0.293349 2.380048 0.896675
v -0.293349 2.380048 0.103325
v 1.184264 2.380048 0.896675
v 1.184264 2.380048 0.103325
v -0.184264 2.380048 0.103325
v -0.184264 2.380048 0.896675
v 1.293349 2.380048 0.103325
v 1.293349 2.380048 0.896675
v -0.238806 2.895725 0.896675
v -0.293349 2.895725 0.500000
v 1.238806 2.895725 0.103325
v 1.293349 2.895725 0.500000
v 1.238806 2.895725 0.896675
v 1.184264 2.895725 0.500000
v -0.238806 2.895725 0.103325
v -0.184264 2.895725 0.500000
v 1.293349 2.836224 0.896675
v 1.184264 2.836224 0.896675
v 1.184264 2.836224 0.103325
v 1.293349 2.836224 0.103325
v -0.184264 2.836224 0.896675
v -0.293349 2.836224 0.896675
v -0.184264 2.836224 0.103325
v -0.293349 2.836224 0.103325
v 0.500000 2.895725 0.896675
v 0.500000 2.895725 0.103325
v 0.500000 2.776722 0.103325
v 0.500000 2.776722 0.896675
v 0.500000 2.836224 0.896675
v 0.500000 2.776722 0.500000
v 0.500000 2.836224 0.103325
v 0.500000 2.895725 0.500000
v -0.238806 2.836224 0.103325
v -0.293349 2.836224 0.500000
v 1.293349 2.836224 0.500000
v 1.184264 2.836224 0.500000
v -0.184264 2.836224 0.500000
v -0.238806 2.836224 0.896675
v -0.238806 2.895725 0.500000
v 1.238806 2.895725 0.500000
v 1.184264 0.991687 0.500000
v -0.238806 2.380048 0.103325
v 1.293349 2.380048 0.500000
v 1.238806 2.380048 0.896675
v -0.238806 2.380048 0.896675
v 1.238806 2.380048 0.103325
v -0.184264 2.380048 0.500000
v 1.238806 2.836224 0.896675
v 1.238806 2.836224 0.103325
v 0.157868 0.595012 0.896675
v -0.293349 2.380048 0.500000
v -0.238806 0.000000 0.500000
v -0.238806 0.595012 0.103325
v 0.842132 0.595012 0.103325
v 0.842132 0.000000 0.500000
v 0.842132 1.983373 0.500000
v 1.238806 0.595012 0.896675
v 0.842132 0.595012 0.896675
v 0.157868 0.595012 0.103325
v 0.157868 0.000000 0.500000
v 0.157868 1.983373 0.500000
v 1.184264 2.380048 0.500000
v 1.238806 0.000000 0.500000
v 1.293349 0.595012 0.500000
v 1.238806 0.595012 0.103325
v -0.293349 0.595012 0.500000
v -0.238806 0.595012 0.896675
v -0.184264 2.696733 1.025322
v -0.339751 2.696733 0.985744
v -0.339751 2.696733 0.014256
v 1.184264 2.696733 -0.025322
v 1.339751 2.696733 0.014256
v 1.339751 2.696733 0.985744
v 1.184264 2.696733 1.025322
v -0.184264 2.696733 -0.025322
v -0.184264 2.958555 0.983046
v -0.330164 2.933666 0.966853
v -0.330164 2.933666 0.033147
v 1.184264 2.958555 0.016954
v 1.330164 2.933666 0.033147
v 1.330164 2.933666 0.966853
v 1.184264 2.958555 0.983046
v -0.184264 2.958555 0.016954
v -0.240790 2.696733 1.025222
v -0.357673 2.696733 0.500000
v 1.240790 2.696733 -0.025222
v 1.357673 2.696733 0.500000
v 1.240790 2.696733 1.025222
v -0.240790 2.696733 -0.025222
v -0.240714 2.957720 0.983552
v -0.337823 2.955111 0.500000
v 1.240714 2.957720 0.016448
v 1.337823 2.955111 0.500000
v 1.240714 2.957720 0.983552
v 1.184264 3.008707 0.500000
v -0.240714 2.957720 0.016448
v -0.184264 3.008707 0.500000
v 1.339499 2.767564 0.985752
v 1.184264 2.767598 1.024958
v 1.184264 2.767598 -0.024958
v 1.339499 2.767564 0.014248
v -0.184264 2.767598 1.024958
v -0.339499 2.767564 0.985752
v -0.184264 2.767598 -0.024958
v -0.339499 2.767564 0.014248
v 0.500000 2.958555 0.983046
v 0.500000 2.958555 0.016954
v 0.500000 2.696733 -0.025322
v 0.500000 2.696733 1.025322
v 0.500000 2.767598 1.024958
v 0.500000 2.767598 -0.024958
v 0.500000 3.008707 0.500000
v -0.240560 2.766301 -0.024958
v -0.357567 2.764904 0.500000
v 1.357567 2.764904 0.500000
v -0.240560 2.766301 1.024958
v -0.240283 3.008624 0.500000
v 1.240283 3.008624 0.500000
v 1.240560 2.766301 1.024958
v 1.240560 2.766301 -0.024958
vn -0.0000 -0.0000 1.0000
vn -1.0000 -0.0000 -0.0000
vn -0.0000 -0.0000 -1.0000
vn 1.0000 -0.0000 -0.0000
vn -0.0000 -1.0000 -0.0000
vn -0.0000 1.0000 -0.0000
vn -0.0004 0.2129 -0.9771
vn 0.2990 0.1662 0.9397
vn 0.3877 0.9189 0.0729
vn -0.0077 0.9946 0.1040
vn 0.0004 0.2129 0.9771
vn 0.9962 0.0828 -0.0285
vn -0.9962 0.0828 0.0285
vn -0.2990 0.1662 -0.9397
vn -0.0000 0.9947 -0.1033
vn -0.0000 0.2144 -0.9768
vn -0.0000 0.2144 0.9768
vn -0.0000 0.0051 1.0000
vn -0.0000 0.0051 -1.0000
vn -0.0000 0.9947 0.1033
vn 0.0004 0.2129 -0.9771
vn -0.0009 0.0045 -1.0000
vn -0.3694 0.0030 -0.9292
vn -0.9962 0.0828 -0.0285
vn -0.9993 0.0026 -0.0370
vn -0.9993 0.0026 0.0370
vn 0.9962 0.0828 0.0285
vn 0.9993 0.0026 0.0370
vn 0.9993 0.0026 -0.0370
vn -0.2990 0.1662 0.9397
vn -0.3694 0.0030 0.9292
vn -0.0009 0.0045 1.0000
vn -0.0077 0.9946 -0.1040
vn -0.3877 0.9189 -0.0729
vn -0.3877 0.9189 0.0729
vn 0.3877 0.9189 -0.0729
vn 0.0076 0.9946 -0.1040
vn 0.0077 0.9946 0.1040
vn -0.0004 0.2129 0.9771
vn 0.0009 0.0045 1.0000
vn 0.3694 0.0030 0.9292
vn 0.2990 0.1662 -0.9397
vn 0.3694 0.0030 -0.9292
vn 0.0009 0.0045 -1.0000
vt 0.043750 0.987138
vt 0.043750 0.063470
vt 0.009899 0.063470
vt 0.009899 0.987138
vt 0.800011 0.664708
vt 0.799356 0.663158
vt 0.799313 0.663214
vt 0.799927 0.664987
vt 0.960805 0.987138
vt 0.960805 0.063470
vt 0.994656 0.063470
vt 0.994656 0.987138
vt 0.785907 0.606065
vt 0.791585 0.641760
vt 0.801347 0.643089
vt 0.801944 0.605480
vt 0.960805 0.995899
vt 0.960805 0.995899
vt 0.994656 0.995899
vt 0.994656 0.995899
vt 0.793635 0.651964
vt 0.796474 0.649954
vt 0.794397 0.650105
vt 0.793567 0.650933
vt 0.289939 0.063470
vt 0.502277 0.063470
vt 0.289939 0.995899
vt 0.289939 0.995899
vt 0.502277 0.995899
vt 0.502277 0.995899
vt 0.289939 0.987138
vt 0.502277 0.987138
vt 0.714616 0.987138
vt 0.714616 0.063470
vt 0.502277 0.987138
vt 0.960805 0.987138
vt 0.926954 0.063470
vt 0.926954 0.987138
vt 0.795960 0.665006
vt 0.802221 0.663333
vt 0.799529 0.651756
vt 0.793979 0.654231
vt 0.714616 0.995899
vt 0.714616 0.995899
vt 0.926954 0.995899
vt 0.926954 0.995899
vt 0.714616 0.987138
vt 0.926954 0.987138
vt 0.043750 0.987138
vt 0.077601 0.063470
vt 0.077601 0.987138
vt 0.043750 0.995899
vt 0.043750 0.995899
vt 0.077601 0.995899
vt 0.077601 0.995899
vt 0.799201 0.662803
vt 0.799153 0.662728
vt 0.798970 0.662410
vt 0.799069 0.662509
vt 0.289939 0.987138
vt 0.077601 0.987138
vt 0.791683 0.650017
vt 0.792223 0.650375
vt 0.792160 0.650504
vt 0.791828 0.650017
vt 0.794838 0.649368
vt 0.795004 0.648932
vt 0.794856 0.648965
vt 0.794734 0.649358
vt 0.799068 0.662455
vt 0.799282 0.662528
vt 0.799233 0.661922
vt 0.798832 0.661937
vt 0.789213 0.650167
vt 0.790176 0.651193
vt 0.792376 0.650321
vt 0.791518 0.650016
vt 0.799064 0.662703
vt 0.798969 0.662660
vt 0.798560 0.662251
vt 0.798855 0.662286
vt 0.796917 0.648625
vt 0.796939 0.647285
vt 0.795201 0.648893
vt 0.794962 0.649371
vt 0.792404 0.645922
vt 0.788639 0.648952
vt 0.791032 0.649710
vt 0.792881 0.648133
vt 0.799248 0.662646
vt 0.799197 0.662740
vt 0.799078 0.662379
vt 0.799066 0.662200
vt 0.926954 0.723233
vt 0.793286 0.649441
vt 0.793115 0.648821
vt 0.798809 0.661919
vt 0.798988 0.662036
vt 0.799195 0.661687
vt 0.798703 0.661682
vt 0.798922 0.662161
vt 0.798917 0.662027
vt 0.077601 -0.503927
vt 0.077601 -0.543512
vt 0.926954 -0.503927
vt 0.926954 -0.543512
vt 0.792999 0.648485
vt 0.791293 0.649667
vt 0.791494 0.649652
vt 0.798986 0.662318
vt 0.798945 0.662300
vt 0.798945 0.662205
vt 0.798903 0.662128
vt 0.798931 0.662179
vt 0.799015 0.662288
vt 0.798946 0.662226
vt 0.798796 0.662156
vt 0.796110 0.655994
vt 0.795404 0.656363
vt 0.798411 0.662113
vt 0.796054 0.655909
vt 0.796088 0.655854
vt 0.796705 0.655454
vt 0.796137 0.655903
vt 0.796820 0.655649
vt 0.794529 0.649867
vt 0.794675 0.649733
vt 0.795453 0.656157
vt 0.798840 0.662088
vt 0.793459 0.650023
vt 0.926954 -0.464341
vt 0.077601 -0.464341
vt 0.799429 0.662976
vt 0.799525 0.663234
vt 0.782664 0.646771
vt 0.801352 0.647941
vt 0.799399 0.663103
vt 0.799303 0.663228
vt 0.799210 0.663041
vt 0.784619 0.651432
vt 0.787875 0.654219
vt 0.799252 0.662849
vt 0.009899 0.995899
vt 0.009899 0.995899
vt 0.009899 0.987138
vt 0.789560 0.666053
vt 0.994656 0.987138
vt 0.799471 0.663252
vt 0.799599 0.663283
vt 0.799419 0.663318
vt 0.784733 0.586437
vt 0.802221 0.586734
vt 0.764972 0.586814
vt 0.769057 0.609391
vt 0.800389 0.665145
vt 0.800652 0.665984
vt 0.800074 0.665051
vt 0.800014 0.664471
vt 0.393690 0.013323
vt 0.393360 0.014257
vt 0.394406 0.014584
vt 0.394608 0.013774
vt 0.401884 0.013840
vt 0.401084 0.012500
vt 0.400641 0.013098
vt 0.400927 0.014171
vt 0.397757 0.014211
vt 0.397843 0.012646
vt 0.396481 0.038379
vt 0.399626 0.038790
vt 0.399822 0.037981
vt 0.396516 0.037576
vt 0.400543 0.039234
vt 0.400866 0.038302
vt 0.397905 0.011524
vt 0.394637 0.012089
vt 0.395011 0.012741
vt 0.396360 0.041061
vt 0.399609 0.040468
vt 0.399231 0.039822
vt 0.396410 0.039943
vt 0.392368 0.038805
vt 0.393182 0.040131
vt 0.393617 0.039530
vt 0.393320 0.038464
vt 0.397112 0.026318
vt 0.393159 0.026054
vt 0.393201 0.037643
vt 0.392076 0.025990
vt 0.402122 0.026617
vt 0.401043 0.026551
vt 0.402106 0.014804
vt 0.401040 0.014997
vt 0.402504 0.014736
vt 0.402504 0.026640
vt 0.401254 0.038418
vt 0.392138 0.037843
vt 0.391740 0.037915
vt 0.391693 0.025967
vt 0.392971 0.014138
vt 0.397714 0.015013
vt 0.392011 0.038978
vt 0.392966 0.040446
vt 0.396344 0.041409
vt 0.399795 0.040804
vt 0.401304 0.012187
vt 0.397924 0.011175
vt 0.394452 0.011750
vt 0.400882 0.039445
vt 0.402243 0.013671
vt 0.393350 0.013108
s 0
usemtl Material.005
f 147/1/1 39/2/1 4/3/1 40/4/1
f 146/5/2 42/6/2 8/7/2 43/8/2
f 145/9/3 45/10/3 6/11/3 46/12/3
f 144/13/4 48/14/4 2/15/4 38/16/4
f 143/17/5 60/18/5 5/19/5 47/20/5
f 142/21/2 83/22/2 27/23/2 78/24/2
f 141/25/6 65/25/6 10/26/6 53/26/6
f 140/27/5 66/28/5 11/29/5 54/30/5
f 139/31/3 52/25/3 12/26/3 55/32/3
f 138/33/1 50/34/1 10/26/1 56/35/1
f 137/36/1 59/10/1 15/37/1 61/38/1
f 136/39/6 50/40/6 15/41/6 62/42/6
f 135/43/5 51/44/5 16/45/5 63/46/5
f 134/47/3 58/34/3 14/37/3 64/48/3
f 133/49/3 68/2/3 20/50/3 69/51/3
f 132/52/5 44/53/5 18/54/5 70/55/5
f 131/56/2 81/57/2 22/58/2 74/59/2
f 130/60/1 65/25/1 17/50/1 72/61/1
f 129/62/3 99/63/3 32/64/3 91/65/3
f 128/66/1 97/67/1 34/68/1 93/69/1
f 127/70/4 85/71/4 28/72/4 80/73/4
f 126/74/3 84/75/3 24/76/3 75/77/3
f 125/78/1 86/79/1 21/80/1 73/81/1
f 124/82/1 88/83/1 26/84/1 77/85/1
f 123/86/4 87/87/4 25/88/4 76/89/4
f 122/90/3 82/91/3 23/92/3 79/93/3
f 121/94/4 61/38/4 13/46/4 63/46/4
f 120/95/6 93/69/6 34/68/6 92/96/6
f 119/97/6 89/98/6 29/99/6 96/100/6
f 118/101/1 101/102/1 29/99/1 89/98/1
f 117/103/2 96/104/2 36/104/2 103/103/2
f 116/105/4 94/106/4 35/106/4 98/105/4
f 115/107/4 100/108/4 33/109/4 92/96/4
f 114/110/2 102/111/2 30/112/2 90/113/2
f 113/114/3 104/115/3 31/116/3 95/117/3
f 112/118/6 106/119/6 36/120/6 96/100/6
f 111/121/3 106/119/3 32/64/3 99/63/3
f 110/122/5 107/123/5 24/76/5 78/24/5
f 109/124/1 105/125/1 29/99/1 101/102/1
f 98/126/1 35/127/1 105/125/1 109/124/1
f 27/23/1 98/126/1 109/124/1 108/128/1
f 108/128/1 109/124/1 101/102/1 21/80/1
f 80/73/5 28/72/5 107/123/5 110/122/5
f 21/80/5 80/73/5 110/122/5 108/128/5
f 108/128/5 110/122/5 78/24/5 27/23/5
f 103/129/3 36/120/3 106/119/3 111/121/3
f 28/72/3 103/129/3 111/121/3 107/123/3
f 107/123/3 111/121/3 99/63/3 24/76/3
f 94/130/6 32/64/6 106/119/6 112/118/6
f 35/127/6 94/130/6 112/118/6 105/125/6
f 105/125/6 112/118/6 96/100/6 29/99/6
f 103/129/3 113/114/3 95/117/3 36/120/3
f 28/72/3 79/93/3 113/114/3 103/129/3
f 79/93/3 23/92/3 104/115/3 113/114/3
f 104/115/2 114/110/2 90/113/2 31/116/2
f 23/92/2 74/59/2 114/110/2 104/115/2
f 74/59/2 22/58/2 102/111/2 114/110/2
f 97/67/4 115/107/4 92/96/4 34/68/4
f 26/84/4 76/89/4 115/107/4 97/67/4
f 76/89/4 25/88/4 100/108/4 115/107/4
f 99/105/4 32/106/4 94/106/4 116/105/4
f 24/131/4 99/105/4 116/105/4 78/131/4
f 78/131/4 116/105/4 98/105/4 27/131/4
f 101/103/2 29/104/2 96/104/2 117/103/2
f 21/132/2 101/103/2 117/103/2 80/132/2
f 80/132/2 117/103/2 103/103/2 28/132/2
f 102/111/1 118/101/1 89/98/1 30/112/1
f 22/58/1 73/81/1 118/101/1 102/111/1
f 73/81/1 21/80/1 101/102/1 118/101/1
f 95/117/6 119/97/6 96/100/6 36/120/6
f 31/116/6 90/113/6 119/97/6 95/117/6
f 90/113/6 30/112/6 89/98/6 119/97/6
f 91/65/6 120/95/6 92/96/6 33/109/6
f 32/64/6 94/130/6 120/95/6 91/65/6
f 94/130/6 35/127/6 93/69/6 120/95/6
f 64/48/4 121/94/4 63/46/4 16/45/4
f 14/37/4 62/37/4 121/94/4 64/48/4
f 62/37/4 15/37/4 61/38/4 121/94/4
f 85/71/3 122/90/3 79/93/3 28/72/3
f 20/133/3 68/134/3 122/90/3 85/71/3
f 68/134/3 8/7/3 82/91/3 122/90/3
f 88/83/4 123/86/4 76/89/4 26/84/4
f 2/15/4 48/14/4 123/86/4 88/83/4
f 48/14/4 6/135/4 87/87/4 123/86/4
f 83/22/1 124/82/1 77/85/1 27/23/1
f 15/41/1 59/136/1 124/82/1 83/22/1
f 59/136/1 2/15/1 88/83/1 124/82/1
f 81/57/1 125/78/1 73/81/1 22/58/1
f 4/137/1 39/138/1 125/78/1 81/57/1
f 39/138/1 17/139/1 86/79/1 125/78/1
f 87/87/3 126/74/3 75/77/3 25/88/3
f 6/135/3 45/140/3 126/74/3 87/87/3
f 45/140/3 14/141/3 84/75/3 126/74/3
f 86/79/4 127/70/4 80/73/4 21/80/4
f 17/139/4 71/142/4 127/70/4 86/79/4
f 71/142/4 20/133/4 85/71/4 127/70/4
f 98/126/1 128/66/1 93/69/1 35/127/1
f 27/23/1 77/85/1 128/66/1 98/126/1
f 77/85/1 26/84/1 97/67/1 128/66/1
f 100/108/3 129/62/3 91/65/3 33/109/3
f 25/88/3 75/77/3 129/62/3 100/108/3
f 75/77/3 24/76/3 99/63/3 129/62/3
f 49/27/1 130/60/1 72/61/1 19/55/1
f 9/30/1 56/35/1 130/60/1 49/27/1
f 56/35/1 10/26/1 65/25/1 130/60/1
f 82/91/2 131/56/2 74/59/2 23/92/2
f 8/7/2 42/6/2 131/56/2 82/91/2
f 42/6/2 4/137/2 81/57/2 131/56/2
f 67/52/5 132/52/5 70/55/5 19/55/5
f 3/143/5 41/143/5 132/52/5 67/52/5
f 41/143/5 7/144/5 44/53/5 132/52/5
f 44/53/3 133/49/3 69/51/3 18/54/3
f 7/144/3 43/145/3 133/49/3 44/53/3
f 43/145/3 8/3/3 68/2/3 133/49/3
f 51/44/3 134/47/3 64/48/3 16/45/3
f 11/29/3 55/32/3 134/47/3 51/44/3
f 55/32/3 12/26/3 58/34/3 134/47/3
f 57/43/5 135/43/5 63/46/5 13/46/5
f 9/30/5 54/30/5 135/43/5 57/43/5
f 54/30/5 11/29/5 51/44/5 135/43/5
f 58/146/6 136/39/6 62/42/6 14/141/6
f 12/26/6 53/26/6 136/34/6 58/34/6
f 53/26/6 10/26/6 50/34/6 136/34/6
f 37/17/1 137/36/1 61/38/1 13/46/1
f 1/20/1 38/147/1 137/36/1 37/17/1
f 38/147/1 2/11/1 59/10/1 137/36/1
f 57/43/1 138/33/1 56/35/1 9/30/1
f 13/46/1 61/38/1 138/33/1 57/43/1
f 61/38/1 15/37/1 50/34/1 138/33/1
f 66/28/3 139/31/3 55/32/3 11/29/3
f 18/54/3 69/51/3 139/31/3 66/28/3
f 69/51/3 20/50/3 52/25/3 139/31/3
f 49/27/5 140/27/5 54/30/5 9/30/5
f 19/55/5 70/55/5 140/27/5 49/27/5
f 70/55/5 18/54/5 66/28/5 140/27/5
f 52/25/6 141/25/6 53/26/6 12/26/6
f 20/133/6 71/142/6 141/148/6 52/149/6
f 71/142/6 17/139/6 65/150/6 141/148/6
f 84/75/2 142/21/2 78/24/2 24/76/2
f 14/141/2 62/42/2 142/21/2 84/75/2
f 62/42/2 15/41/2 83/22/2 142/21/2
f 37/17/5 143/17/5 47/20/5 1/20/5
f 13/46/5 63/46/5 143/17/5 37/17/5
f 63/46/5 16/45/5 60/18/5 143/17/5
f 47/151/4 144/13/4 38/16/4 1/152/4
f 5/153/4 46/154/4 144/13/4 47/151/4
f 46/154/4 6/135/4 48/14/4 144/13/4
f 60/18/3 145/9/3 46/12/3 5/19/3
f 16/45/3 64/48/3 145/9/3 60/18/3
f 64/48/3 14/37/3 45/10/3 145/9/3
f 41/155/2 146/5/2 43/8/2 7/156/2
f 3/157/2 40/158/2 146/5/2 41/155/2
f 40/158/2 4/137/2 42/6/2 146/5/2
f 67/52/1 147/1/1 40/4/1 3/143/1
f 19/55/1 72/61/1 147/1/1 67/52/1
f 72/61/1 17/50/1 39/2/1 147/1/1
f 200/159/7 180/160/7 159/161/7 172/162/7
f 199/163/8 178/164/8 161/165/8 174/166/8
f 198/167/9 174/166/9 161/165/9 173/168/9
f 197/169/10 170/170/10 156/171/10 177/172/10
f 196/173/11 182/174/11 156/171/11 170/170/11
f 195/175/12 181/176/12 160/177/12 173/168/12
f 194/178/13 183/179/13 157/180/13 171/181/13
f 193/182/14 185/183/14 158/184/14 176/185/14
f 192/186/15 187/187/15 163/188/15 177/172/15
f 191/189/16 187/187/16 159/161/16 180/160/16
f 190/190/17 186/191/17 156/171/17 182/174/17
f 179/192/17 162/193/17 186/191/17 190/190/17
f 154/194/18 179/192/18 190/190/18 189/195/18
f 189/195/18 190/190/18 182/174/18 148/196/18
f 184/197/16 163/188/16 187/187/16 191/189/16
f 155/198/19 184/197/19 191/189/19 188/199/19
f 188/199/19 191/189/19 180/160/19 151/200/19
f 175/201/15 159/161/15 187/187/15 192/186/15
f 162/193/20 175/201/20 192/186/20 186/191/20
f 186/191/20 192/186/20 177/172/20 156/171/20
f 184/197/21 193/182/21 176/185/21 163/188/21
f 155/198/22 169/202/22 193/182/22 184/197/22
f 169/202/23 150/203/23 185/183/23 193/182/23
f 185/183/24 194/178/24 171/181/24 158/184/24
f 150/203/25 165/204/25 194/178/25 185/183/25
f 165/204/26 149/205/26 183/179/26 194/178/26
f 178/164/27 195/175/27 173/168/27 161/165/27
f 153/206/28 167/207/28 195/175/28 178/164/28
f 167/207/29 152/208/29 181/176/29 195/175/29
f 183/179/30 196/173/30 170/170/30 157/180/30
f 149/205/31 164/209/31 196/173/31 183/179/31
f 164/209/32 148/196/32 182/174/32 196/173/32
f 176/185/33 197/169/33 177/172/33 163/188/33
f 158/184/34 171/181/34 197/169/34 176/185/34
f 171/181/35 157/180/35 170/170/35 197/169/35
f 172/162/36 198/167/36 173/168/36 160/177/36
f 159/161/37 175/201/37 198/167/37 172/162/37
f 175/201/38 162/193/38 174/166/38 198/167/38
f 179/192/39 199/163/39 174/166/39 162/193/39
f 154/194/40 168/210/40 199/163/40 179/192/40
f 168/210/41 153/206/41 178/164/41 199/163/41
f 181/176/42 200/159/42 172/162/42 160/177/42
f 152/208/43 166/211/43 200/159/43 181/176/43
f 166/211/44 151/200/44 180/160/44 200/159/44
