# Blender 4.3.2
# www.blender.org
mtllib hportal4.mtl
o Sphere.003
v 2.406607 3.802349 0.447325
v 3.802344 2.406612 0.447325
v 4.313220 0.500000 0.447325
v 3.802344 -1.406612 0.447325
v 2.406607 -2.802349 0.447325
v 1.453301 3.802349 2.098500
v 2.151170 2.406612 3.307243
v 2.406607 0.500000 3.749674
v 2.151170 -1.406612 3.307243
v 1.453301 -2.802349 2.098500
v -0.453311 3.802349 2.098500
v -1.151179 2.406612 3.307243
v -1.406617 0.500000 3.749674
v -1.151179 -1.406612 3.307243
v -0.453311 -2.802349 2.098500
v -1.406617 3.802349 0.447325
v -2.802354 2.406612 0.447324
v -3.313229 0.500000 0.447324
v -2.802354 -1.406612 0.447324
v -1.406617 -2.802349 0.447325
v 0.499996 4.313224 0.447325
v -0.453310 3.802349 -1.203850
v -1.151178 2.406612 -2.412594
v -1.406616 0.500000 -2.855024
v -1.151178 -1.406612 -2.412594
v -0.453310 -2.802349 -1.203850
v 1.453302 3.802349 -1.203849
v 2.151171 2.406612 -2.412593
v 2.406609 0.500000 -2.855023
v 2.151171 -1.406612 -2.412593
v 1.453302 -2.802349 -1.203849
v 0.499996 -3.313224 0.447325
vn -0.5585 -0.8295 -0.0000
vn -0.8842 -0.4671 -0.0000
vn -1.0000 -0.0000 -0.0000
vn -0.8842 0.4671 -0.0000
vn -0.5585 0.8295 -0.0000
vn -0.2793 -0.8295 -0.4837
vn -0.4421 -0.4671 -0.7657
vn -0.5000 -0.0000 -0.8660
vn -0.4421 0.4671 -0.7657
vn -0.2793 0.8295 -0.4837
vn 0.2793 -0.8295 -0.4837
vn 0.4421 -0.4671 -0.7657
vn 0.5000 -0.0000 -0.8660
vn 0.4421 0.4671 -0.7657
vn 0.2793 0.8295 -0.4837
vn 0.5585 -0.8295 -0.0000
vn 0.8842 -0.4671 -0.0000
vn 1.0000 -0.0000 -0.0000
vn 0.8842 0.4671 -0.0000
vn 0.5585 0.8295 -0.0000
vn -0.0000 -1.0000 -0.0000
vn 0.2793 -0.8295 0.4837
vn 0.4421 -0.4671 0.7657
vn 0.5000 -0.0000 0.8660
vn 0.4421 0.4671 0.7657
vn 0.2793 0.8295 0.4837
vn -0.2793 -0.8295 0.4837
vn -0.4421 -0.4671 0.7657
vn -0.5000 -0.0000 0.8660
vn -0.4421 0.4671 0.7657
vn -0.2793 0.8295 0.4837
vn -0.0000 1.0000 -0.0000
vt 0.666667 0.333333
vt 0.500000 0.500000
vt 0.666667 0.500000
vt 0.666667 0.666667
vt 0.500000 0.833333
vt 0.666667 0.833333
vt 0.500000 0.166667
vt 0.666667 0.166667
vt 0.583333 1.000000
vt 0.583333 0.000000
vt 0.333333 0.166667
vt 0.500000 0.333333
vt 0.333333 0.500000
vt 0.500000 0.666667
vt 0.333333 0.833333
vt 0.416667 1.000000
vt 0.416667 0.000000
vt 0.333333 0.666667
vt 0.166667 0.166667
vt 0.333333 0.333333
vt 0.166667 0.500000
vt 0.166667 0.833333
vt 0.250000 1.000000
vt 0.250000 0.000000
vt 0.166667 0.333333
vt 0.166667 0.666667
vt 0.000000 0.166667
vt 0.000000 0.500000
vt 0.000000 0.833333
vt 0.083333 1.000000
vt 0.083333 0.000000
vt 0.000000 0.333333
vt 0.833333 0.500000
vt 1.000000 0.666667
vt 1.000000 0.500000
vt 1.000000 0.833333
vt 0.833333 0.833333
vt 0.916667 1.000000
vt 0.916667 0.000000
vt 0.833333 0.166667
vt 1.000000 0.166667
vt 0.833333 0.333333
vt 1.000000 0.333333
vt 0.833333 0.666667
vt 0.750000 1.000000
vt 0.750000 0.000000
vt 0.000000 0.666667
s 1
usemtl Material.001
f 4/1/4 8/2/8 3/3/3
f 2/4/2 6/5/6 1/6/1
f 10/7/10 4/1/4 5/8/5
f 8/2/8 2/4/2 3/3/3
f 1/6/1 6/5/6 21/9/21
f 32/10/32 10/7/10 5/8/5
f 15/11/15 9/12/9 10/7/10
f 13/13/13 7/14/7 8/2/8
f 6/5/6 11/15/11 21/16/21
f 32/17/32 15/11/15 10/7/10
f 9/12/9 13/13/13 8/2/8
f 12/18/12 6/5/6 7/14/7
f 20/19/20 14/20/14 15/11/15
f 18/21/18 12/18/12 13/13/13
f 11/15/11 16/22/16 21/23/21
f 32/24/32 20/19/20 15/11/15
f 19/25/19 13/13/13 14/20/14
f 17/26/17 11/15/11 12/18/12
f 26/27/26 19/25/19 20/19/20
f 24/28/24 17/26/17 18/21/18
f 16/22/16 22/29/22 21/30/21
f 32/31/32 26/27/26 20/19/20
f 25/32/25 18/21/18 19/25/19
f 17/26/17 22/29/22 16/22/16
f 29/33/29 23/34/23 24/35/24
f 22/36/22 27/37/27 21/38/21
f 32/39/32 31/40/31 26/41/26
f 30/42/30 24/35/24 25/43/25
f 28/44/28 22/36/22 23/34/23
f 31/40/31 25/43/25 26/41/26
f 27/37/27 1/6/1 21/45/21
f 32/46/32 5/8/5 31/40/31
f 4/1/4 29/33/29 30/42/30
f 2/4/2 27/37/27 28/44/28
f 31/40/31 4/1/4 30/42/30
f 3/3/3 28/44/28 29/33/29
f 4/1/4 9/12/9 8/2/8
f 2/4/2 7/14/7 6/5/6
f 10/7/10 9/12/9 4/1/4
f 8/2/8 7/14/7 2/4/2
f 15/11/15 14/20/14 9/12/9
f 13/13/13 12/18/12 7/14/7
f 9/12/9 14/20/14 13/13/13
f 12/18/12 11/15/11 6/5/6
f 20/19/20 19/25/19 14/20/14
f 18/21/18 17/26/17 12/18/12
f 19/25/19 18/21/18 13/13/13
f 17/26/17 16/22/16 11/15/11
f 26/27/26 25/32/25 19/25/19
f 24/28/24 23/47/23 17/26/17
f 25/32/25 24/28/24 18/21/18
f 17/26/17 23/47/23 22/29/22
f 29/33/29 28/44/28 23/34/23
f 30/42/30 29/33/29 24/35/24
f 28/44/28 27/37/27 22/36/22
f 31/40/31 30/42/30 25/43/25
f 4/1/4 3/3/3 29/33/29
f 2/4/2 1/6/1 27/37/27
f 31/40/31 5/8/5 4/1/4
f 3/3/3 2/4/2 28/44/28
