# Made in Blockbench 4.12.5
mtllib slope.mtl

o cuboid
v 1 1 1
v 1 0 0
v 1 0 1
v 0 1 1
v 0 0 0
v 0 0 1
vt 0.265625 1
vt 0.265625 0.75
vt 0.515625 0.75
vt 0.375 0.734375
vt 0.125 0.484375
vt 0.375 0.484375
vt 0.25 1
vt 0 1
vt 0 0.640625
vt 0.25 0.640625
vt 0.640625 0.484375
vt 0.640625 0.734375
vt 0.390625 0.734375
vt 0.390625 0.484375
vt 0.640625 0.484375
vt 0.640625 0.734375
vt 0.390625 0.734375
vt 0.390625 0.484375
vn 1 0 0
vn -1 0 0
vn 0 0.7071067811865476 -0.7071067811865476
vn 0 -1 0
vn 0 0 1
usemtl m_f68b3c92-99ac-28ea-037c-fda07331b134
f 1/1/1 3/2/1 2/3/1
f 4/4/2 5/5/2 6/6/2
f 4/7/3 1/8/3 2/9/3 5/10/3
f 2/11/4 3/12/4 6/13/4 5/14/4
f 3/15/5 1/16/5 4/17/5 6/18/5