# Blender 4.3.2
# www.blender.org
mtllib toadstool.mtl
o Cube
v 0.398555 0.000032 0.601569
v 0.347769 0.046058 0.652355
v 0.398555 0.000032 0.398431
v 0.347769 0.046058 0.347645
v 0.601693 0.000032 0.601569
v 0.652479 0.046058 0.652355
v 0.601693 0.000032 0.398431
v 0.652479 0.046058 0.347645
v 0.335395 0.189275 0.664729
v 0.335395 0.189275 0.335271
v 0.664853 0.189275 0.335271
v 0.664853 0.189275 0.664729
v 0.376060 0.319690 0.627065
v 0.376060 0.319690 0.372935
v 0.630189 0.319690 0.372935
v 0.630189 0.319690 0.627065
v 0.398068 0.442904 0.605057
v 0.398068 0.442904 0.394943
v 0.608181 0.442904 0.394943
v 0.608181 0.442904 0.605057
v 0.161973 0.454426 0.837695
v 0.161973 0.454426 0.162305
v 0.837363 0.454426 0.162305
v 0.837363 0.454426 0.837695
v 0.115318 0.527010 0.884350
v 0.115318 0.527010 0.115650
v 0.884018 0.527010 0.115650
v 0.884018 0.527010 0.884350
v 0.149927 0.607648 0.849741
v 0.149927 0.607648 0.150259
v 0.849409 0.607648 0.150259
v 0.849409 0.607648 0.849741
v 0.300053 0.750512 0.699615
v 0.300053 0.750512 0.300385
v 0.699283 0.750512 0.300385
v 0.699283 0.750512 0.699615
v 0.419065 0.831162 0.580603
v 0.419065 0.831162 0.419397
v 0.580271 0.831162 0.419397
v 0.580271 0.831162 0.580603
v 0.500000 0.000032 0.364574
v 0.500000 0.046058 0.296860
v 0.500000 0.000032 0.635426
v 0.500000 0.046058 0.703140
v 0.500000 0.189275 0.280361
v 0.500000 0.189275 0.719639
v 0.504000 0.319690 0.330581
v 0.504000 0.319690 0.669419
v 0.504000 0.442904 0.359924
v 0.504000 0.442904 0.640076
v 0.499392 0.454426 0.049740
v 0.499392 0.454426 0.950260
v 0.499392 0.527010 -0.012467
v 0.499392 0.527010 1.012467
v 0.499392 0.607648 0.033679
v 0.499392 0.607648 0.966321
v 0.499392 0.750512 0.233847
v 0.499392 0.750512 0.766153
v 0.499392 0.831162 0.392529
v 0.499392 0.831162 0.607471
v 0.364574 0.000032 0.500000
v 0.296860 0.046058 0.500000
v 0.635426 0.000032 0.500000
v 0.703140 0.046058 0.500000
v 0.280361 0.189275 0.500000
v 0.719639 0.189275 0.500000
v 0.334581 0.319690 0.500000
v 0.673420 0.319690 0.500000
v 0.363925 0.442904 0.500000
v 0.644076 0.442904 0.500000
v 0.049132 0.454426 0.500000
v 0.949652 0.454426 0.500000
v -0.013075 0.527010 0.500000
v 1.011859 0.527010 0.500000
v 0.033071 0.607648 0.500000
v 0.965713 0.607648 0.500000
v 0.233239 0.750512 0.500000
v 0.765545 0.750512 0.500000
v 0.391921 0.831162 0.500000
v 0.606863 0.831162 0.500000
v 0.499392 0.831162 0.500000
v 0.500000 0.000032 0.500000
vn -0.2498 -0.9355 0.2500
vn -0.6187 -0.4837 0.6190
vn -0.2498 -0.9355 -0.2500
vn -0.6187 -0.4837 -0.6190
vn 0.2501 -0.9354 0.2499
vn 0.6190 -0.4837 0.6188
vn 0.2501 -0.9354 -0.2499
vn 0.6190 -0.4837 -0.6188
vn -0.7021 0.1304 0.7000
vn -0.7021 0.1304 -0.7000
vn 0.7011 0.1178 -0.7033
vn 0.7011 0.1178 0.7033
vn -0.6673 0.3271 0.6692
vn -0.6673 0.3271 -0.6692
vn 0.6733 0.3096 -0.6714
vn 0.6733 0.3096 0.6714
vn -0.4799 -0.7358 0.4778
vn -0.4799 -0.7358 -0.4778
vn 0.4803 -0.7325 -0.4824
vn 0.4803 -0.7325 0.4824
vn -0.3571 -0.8631 0.3572
vn -0.3571 -0.8631 -0.3572
vn 0.3575 -0.8629 -0.3573
vn 0.3575 -0.8629 0.3573
vn -0.7045 -0.0829 0.7048
vn -0.7045 -0.0829 -0.7048
vn 0.7048 -0.0829 -0.7045
vn 0.7048 -0.0829 0.7045
vn -0.5306 0.6608 0.5309
vn -0.5306 0.6608 -0.5309
vn 0.5309 0.6607 -0.5306
vn 0.5309 0.6607 0.5306
vn -0.3621 0.8589 0.3623
vn -0.3621 0.8589 -0.3623
vn 0.3623 0.8589 -0.3620
vn 0.3623 0.8589 0.3620
vn -0.1989 0.9595 0.1993
vn -0.1989 0.9595 -0.1993
vn 0.1994 0.9595 -0.1990
vn 0.1994 0.9595 0.1990
vn -0.0002 -0.9379 -0.3470
vn -0.0002 -0.4837 -0.8752
vn -0.0002 -0.9379 0.3470
vn -0.0002 -0.4837 0.8752
vn -0.0022 0.1205 -0.9927
vn -0.0022 0.1205 0.9927
vn 0.0053 0.2999 -0.9539
vn 0.0053 0.2999 0.9539
vn 0.0020 -0.6927 -0.7212
vn 0.0020 -0.6927 0.7212
vn -0.0002 -0.8681 -0.4964
vn -0.0002 -0.8681 0.4964
vn -0.0002 -0.0849 -0.9964
vn -0.0002 -0.0849 0.9964
vn -0.0002 0.6500 -0.7599
vn -0.0002 0.6500 0.7599
vn -0.0003 0.8484 -0.5294
vn -0.0003 0.8484 0.5294
vn -0.0004 0.9609 -0.2770
vn -0.0004 0.9609 0.2770
vn -0.3472 -0.9378 -0.0000
vn -0.8752 -0.4837 -0.0000
vn 0.3468 -0.9379 -0.0000
vn 0.8752 -0.4837 -0.0000
vn -0.9914 0.1312 -0.0000
vn 0.9940 0.1095 -0.0000
vn -0.9497 0.3132 -0.0000
vn 0.9581 0.2866 -0.0000
vn -0.7232 -0.6906 -0.0000
vn 0.7193 -0.6947 -0.0000
vn -0.4964 -0.8681 -0.0000
vn 0.4964 -0.8681 -0.0000
vn -0.9964 -0.0849 -0.0000
vn 0.9964 -0.0849 -0.0000
vn -0.7599 0.6500 -0.0000
vn 0.7599 0.6500 -0.0000
vn -0.5294 0.8484 -0.0000
vn 0.5295 0.8483 -0.0000
vn -0.2774 0.9608 -0.0000
vn 0.2766 0.9610 -0.0000
vn -0.0000 1.0000 -0.0000
vn -0.0000 -1.0000 -0.0000
vt 0.324878 0.073863
vt 0.408277 0.031050
vt 0.385024 0.036741
vt 0.491472 0.073863
vt 0.574870 0.031050
vt 0.491472 0.031050
vt 0.658065 0.073863
vt 0.594493 0.031591
vt 0.491472 0.073863
vt 0.510955 0.485346
vt 0.608477 0.582749
vt 0.510955 0.615216
vt 0.616518 0.073863
vt 0.671596 0.207083
vt 0.491472 0.207083
vt 0.598239 0.328395
vt 0.494752 0.328395
vt 0.366628 0.073863
vt 0.317653 0.207698
vt 0.491472 0.207083
vt 0.633692 0.328395
vt 0.580911 0.443029
vt 0.609159 0.443730
vt 0.389829 0.328395
vt 0.494752 0.328395
vt 0.598239 0.328395
vt 0.389829 0.328395
vt 0.355813 0.328395
vt 0.614698 0.384598
vt 0.942162 0.485346
vt 0.649121 0.485346
vt 0.406639 0.440171
vt 0.382090 0.438840
vt 0.580911 0.443029
vt 0.490751 0.439435
vt 0.490751 0.439435
vt 0.207661 0.202596
vt 0.057644 0.492004
vt 0.110955 0.492004
vt 0.413204 0.586093
vt 0.078582 0.485346
vt 0.380462 0.485346
vt 0.614698 0.586093
vt 0.510372 0.917136
vt 0.514792 0.619675
vt 0.413204 0.384598
vt 0.510372 0.053556
vt 0.514792 0.351016
vt 0.496832 0.052815
vt 0.796800 0.192273
vt 0.496832 0.092363
vt 0.786476 0.202596
vt 0.496832 0.106127
vt 0.207661 0.781412
vt 0.496832 0.931193
vt 0.496832 0.877881
vt 0.786476 0.781412
vt 0.936021 0.492004
vt 0.882709 0.492004
vt 0.896474 0.492004
vt 0.668141 0.663076
vt 0.724928 0.492004
vt 0.197338 0.791735
vt 0.496832 0.891645
vt 0.796800 0.791735
vt 0.197338 0.192273
vt 0.097191 0.492004
vt 0.496832 0.263909
vt 0.566146 0.422927
vt 0.496832 0.399901
vt 0.325997 0.320932
vt 0.268737 0.492004
vt 0.668141 0.320932
vt 0.325997 0.663076
vt 0.496832 0.720099
vt 0.496832 0.492004
vt 0.427991 0.422927
vt 0.427991 0.561081
vt 0.496832 0.584107
vt 0.566146 0.561081
vt 0.588936 0.492004
vt 0.404729 0.492004
vt 0.826460 0.821396
vt 0.167677 0.162612
vt 0.834479 0.161503
vt 0.186794 0.809188
vt 0.626667 0.207083
vt 0.356480 0.207083
vt 0.413671 0.582749
vt 0.381085 0.485346
vt 0.413671 0.387943
vt 0.167677 0.821396
vt 0.826460 0.162612
vt 0.186794 0.161503
vt 0.834479 0.809188
vt 0.356480 0.207083
vt 0.626667 0.207083
vt 0.608477 0.387943
vt 0.510955 0.355475
vt 0.640826 0.485346
s 1
usemtl stem
f 62/1/62 3/2/3 61/3/61
f 42/4/42 7/5/7 41/6/41
f 64/7/64 5/5/5 63/8/63
f 44/9/44 1/2/1 43/6/43
f 8/13/8 66/14/66 64/7/64
f 46/15/46 16/16/16 48/17/48
f 2/18/2 65/19/65 62/1/62
f 6/13/6 46/15/46 44/9/44
f 4/18/4 45/20/45 42/4/42
f 68/21/68 19/22/19 70/23/70
f 45/20/45 14/24/14 47/25/47
f 66/14/66 15/26/15 68/21/68
f 65/19/65 13/27/13 67/28/67
f 67/28/67 17/32/17 69/33/69
f 48/17/48 20/34/20 50/35/50
f 47/25/47 18/32/18 49/36/49
f 47/25/47 19/22/19 15/26/15
f 48/17/48 17/32/17 13/27/13
f 45/20/45 15/26/15 11/87/11
f 8/13/8 45/20/45 11/87/11
f 2/18/2 46/15/46 9/88/9
f 46/15/46 13/27/13 9/88/9
f 5/5/5 44/9/44 43/6/43
f 3/2/3 42/4/42 41/6/41
f 67/28/67 18/32/18 14/24/14
f 65/19/65 14/24/14 10/96/10
f 66/14/66 16/16/16 12/97/12
f 68/21/68 20/34/20 16/16/16
f 4/18/4 65/19/65 10/96/10
f 6/13/6 66/14/66 12/97/12
f 7/5/7 64/7/64 63/8/63
f 1/2/1 62/1/62 61/3/61
f 62/1/62 4/18/4 3/2/3
f 42/4/42 8/13/8 7/5/7
f 64/7/64 6/13/6 5/5/5
f 44/9/44 2/18/2 1/2/1
f 8/13/8 11/87/11 66/14/66
f 46/15/46 12/97/12 16/16/16
f 2/18/2 9/88/9 65/19/65
f 6/13/6 12/97/12 46/15/46
f 4/18/4 10/96/10 45/20/45
f 68/21/68 15/26/15 19/22/19
f 45/20/45 10/96/10 14/24/14
f 66/14/66 11/87/11 15/26/15
f 65/19/65 9/88/9 13/27/13
f 67/28/67 13/27/13 17/32/17
f 48/17/48 16/16/16 20/34/20
f 47/25/47 14/24/14 18/32/18
f 47/25/47 49/36/49 19/22/19
f 48/17/48 50/35/50 17/32/17
f 45/20/45 47/25/47 15/26/15
f 8/13/8 42/4/42 45/20/45
f 2/18/2 44/9/44 46/15/46
f 46/15/46 48/17/48 13/27/13
f 5/5/5 6/13/6 44/9/44
f 3/2/3 4/18/4 42/4/42
f 67/28/67 69/33/69 18/32/18
f 65/19/65 67/28/67 14/24/14
f 66/14/66 68/21/68 16/16/16
f 68/21/68 70/23/70 20/34/20
f 4/18/4 62/1/62 65/19/65
f 6/13/6 64/7/64 66/14/66
f 7/5/7 8/13/8 64/7/64
f 1/2/1 2/18/2 62/1/62
usemtl butt
f 82/10/82 5/11/5 43/12/43
f 19/29/19 72/30/72 70/31/70
f 17/40/17 71/41/71 69/42/69
f 20/43/20 52/44/52 50/45/50
f 18/46/18 51/47/51 49/48/49
f 19/29/19 51/47/51 23/85/23
f 17/40/17 52/44/52 21/86/21
f 82/10/82 1/89/1 61/90/61
f 3/91/3 82/10/82 61/90/61
f 18/46/18 71/41/71 22/94/22
f 20/43/20 72/30/72 24/95/24
f 7/98/7 82/10/82 41/99/41
f 82/10/82 63/100/63 5/11/5
f 19/29/19 23/85/23 72/30/72
f 17/40/17 21/86/21 71/41/71
f 20/43/20 24/95/24 52/44/52
f 18/46/18 22/94/22 51/47/51
f 19/29/19 49/48/49 51/47/51
f 17/40/17 50/45/50 52/44/52
f 82/10/82 43/12/43 1/89/1
f 3/91/3 41/99/41 82/10/82
f 18/46/18 69/42/69 71/41/71
f 20/43/20 70/31/70 72/30/72
f 7/98/7 63/100/63 82/10/82
usemtl head
f 21/37/21 73/38/73 71/39/71
f 54/49/54 32/50/32 56/51/56
f 24/52/24 54/49/54 52/53/52
f 22/54/22 53/55/53 51/56/51
f 23/57/23 74/58/74 72/59/72
f 76/60/76 35/61/35 78/62/78
f 53/55/53 30/63/30 55/64/55
f 74/58/74 31/65/31 76/60/76
f 73/38/73 29/66/29 75/67/75
f 58/68/58 40/69/40 60/70/60
f 75/67/75 33/71/33 77/72/77
f 56/51/56 36/73/36 58/68/58
f 55/64/55 34/74/34 57/75/57
f 81/76/81 37/77/37 60/70/60
f 57/75/57 38/78/38 59/79/59
f 78/62/78 39/80/39 80/81/80
f 77/72/77 37/77/37 79/82/79
f 57/75/57 39/80/39 35/61/35
f 81/76/81 40/69/40 80/81/80
f 55/64/55 35/61/35 31/65/31
f 56/51/56 33/71/33 29/66/29
f 58/68/58 37/77/37 33/71/33
f 53/55/53 31/65/31 27/83/27
f 23/57/23 53/55/53 27/83/27
f 21/37/21 54/49/54 25/84/25
f 54/49/54 29/66/29 25/84/25
f 39/80/39 81/76/81 80/81/80
f 77/72/77 38/78/38 34/74/34
f 78/62/78 40/69/40 36/73/36
f 38/78/38 81/76/81 59/79/59
f 75/67/75 34/74/34 30/63/30
f 73/38/73 30/63/30 26/92/26
f 74/58/74 32/50/32 28/93/28
f 76/60/76 36/73/36 32/50/32
f 24/52/24 74/58/74 28/93/28
f 22/54/22 73/38/73 26/92/26
f 21/37/21 25/84/25 73/38/73
f 54/49/54 28/93/28 32/50/32
f 24/52/24 28/93/28 54/49/54
f 22/54/22 26/92/26 53/55/53
f 23/57/23 27/83/27 74/58/74
f 76/60/76 31/65/31 35/61/35
f 53/55/53 26/92/26 30/63/30
f 74/58/74 27/83/27 31/65/31
f 73/38/73 25/84/25 29/66/29
f 58/68/58 36/73/36 40/69/40
f 75/67/75 29/66/29 33/71/33
f 56/51/56 32/50/32 36/73/36
f 55/64/55 30/63/30 34/74/34
f 81/76/81 79/82/79 37/77/37
f 57/75/57 34/74/34 38/78/38
f 78/62/78 35/61/35 39/80/39
f 77/72/77 33/71/33 37/77/37
f 57/75/57 59/79/59 39/80/39
f 81/76/81 60/70/60 40/69/40
f 55/64/55 57/75/57 35/61/35
f 56/51/56 58/68/58 33/71/33
f 58/68/58 60/70/60 37/77/37
f 53/55/53 55/64/55 31/65/31
f 23/57/23 51/56/51 53/55/53
f 21/37/21 52/53/52 54/49/54
f 54/49/54 56/51/56 29/66/29
f 39/80/39 59/79/59 81/76/81
f 77/72/77 79/82/79 38/78/38
f 78/62/78 80/81/80 40/69/40
f 38/78/38 79/82/79 81/76/81
f 75/67/75 77/72/77 34/74/34
f 73/38/73 75/67/75 30/63/30
f 74/58/74 76/60/76 32/50/32
f 76/60/76 78/62/78 36/73/36
f 24/52/24 72/59/72 74/58/74
f 22/54/22 71/39/71 73/38/73
