# Blender 4.3.2
# www.blender.org
mtllib tree4.mtl
o 4
v 0.326920 -2.448753 0.757174
v 0.550167 -2.878151 1.541216
v 0.885507 -2.609834 1.051293
v 0.872152 -3.062443 0.603802
v 0.872152 -2.696598 0.717045
v 0.540965 -2.601093 0.542662
v 1.488143 -1.837409 -0.586628
v 1.358377 -1.664775 -0.446074
v 1.485676 -1.228858 -0.837420
v 1.367909 -1.296818 -0.942885
v 1.387996 -1.159420 -0.756367
v 0.702658 -1.768848 1.612094
v 0.440230 0.377044 2.835732
v 0.650766 0.272979 2.980435
v 0.145396 -1.947773 1.042529
v 0.166667 -1.749529 1.201044
v 0.058397 -1.803639 1.319658
v -0.573289 -1.044611 0.407964
v -0.705435 -1.182567 0.491849
v -0.577490 -0.953859 0.615023
v -0.867598 -0.507277 -0.045898
v -0.973360 -0.605309 -0.041637
v -0.884495 -0.514662 0.108375
v 0.174430 -1.747012 1.678154
v 0.461965 -1.889137 1.875780
v 0.263994 0.288967 3.028805
v 0.474530 0.184901 3.173508
v 0.014300 -2.037581 1.215702
v -0.684470 -1.042017 0.673460
v -0.983877 -0.585036 0.142549
v -0.008419 -2.717070 1.247097
v 0.540965 -3.015161 0.417078
v 1.269475 -1.930805 -0.686194
v 1.122231 -1.735102 -0.528783
v 1.267949 -1.198783 -0.832952
v 0.415122 -1.626723 1.414467
v 0.233911 -3.129999 1.262969
v 0.721067 -3.129999 1.165249
v 0.209160 -3.129999 0.750831
v 0.846736 -3.129999 0.887332
v 0.745631 -3.129999 0.575593
v 0.865308 -3.129999 0.609307
v 0.326920 -3.129999 0.550259
v -0.005505 -3.129999 1.172049
v 0.550167 -3.129999 1.459241
v 0.468197 -3.129999 0.439230
vn 0.7628 -0.1451 0.6301
vn 0.8294 0.1981 0.5224
vn -0.6007 0.2324 -0.7650
vn 0.9990 0.0134 -0.0434
vn 0.3860 0.8890 -0.2462
vn -0.4166 0.5315 0.7375
vn -0.3942 0.8075 0.4388
vn -0.8830 0.1362 -0.4492
vn -0.7942 -0.1181 -0.5961
vn 0.7301 0.3260 0.6006
vn 0.7663 -0.3441 0.5425
vn -0.9525 0.0458 0.3011
vn -0.6234 -0.2164 0.7514
vn -0.6452 -0.4024 0.6494
vn -0.4448 0.8956 0.0025
vn 0.3652 0.5571 -0.7458
vn 0.8886 0.4264 -0.1689
vn 0.7899 0.5674 -0.2327
vn 0.2667 0.7614 0.5908
vn -0.7751 -0.1288 0.6186
vn -0.1867 0.6901 0.6993
vn -0.9053 -0.4247 -0.0049
vn 0.3927 -0.4583 -0.7973
vn -0.8072 0.0429 -0.5888
vn 0.0450 -0.5501 -0.8339
vn -0.7629 0.3804 -0.5228
vn 0.6461 0.4362 -0.6264
vn 0.6435 0.5166 -0.5648
vn 0.7232 -0.2606 -0.6396
vn 0.5187 -0.7155 -0.4679
vn 0.8522 -0.1492 0.5016
vn 0.9250 -0.1124 0.3630
vn -0.6013 0.2319 -0.7647
vn 0.9933 -0.0950 0.0664
vn -0.5804 0.4505 0.6783
vn -0.1122 0.7662 0.6328
vn -0.8103 -0.1552 -0.5650
vn -0.7878 -0.1277 -0.6025
vn 0.8342 0.2130 0.5086
vn -0.5118 -0.3159 0.7989
vn 0.8261 0.5512 0.1169
vn 0.8163 0.3048 -0.4907
vn -0.0280 0.5757 0.8172
vn -0.8015 -0.4245 0.4211
vn -0.2254 0.6644 0.7126
vn -0.9195 -0.2523 0.3014
vn 0.1693 -0.6254 -0.7617
vn -0.8256 0.0015 -0.5643
vn -0.2827 -0.7472 -0.6015
vn 0.5118 0.5023 -0.6969
vn 0.5142 -0.3893 -0.7642
vn 0.2295 -0.7656 -0.6009
vn 0.2696 -0.1053 -0.9572
vn -0.8884 0.0760 -0.4528
vn -0.5081 -0.2667 0.8189
vn -0.3499 -0.1699 0.9213
vn 0.8939 -0.1940 0.4042
vn 0.8532 -0.1614 0.4960
vn -0.8523 0.1520 -0.5004
vn 0.4022 -0.4118 -0.8177
vn -0.0000 -1.0000 -0.0000
vn 0.0966 0.8693 0.4847
vn 0.1004 0.8121 -0.5748
vn -0.6011 0.7899 -0.1213
vn -0.6009 0.2333 -0.7646
vn 0.9932 -0.0952 0.0664
vn -0.5082 -0.2666 0.8189
vn 0.8533 -0.1611 0.4958
vn -0.8524 0.1520 -0.5002
vn 0.4019 -0.4124 -0.8176
vn 0.0958 0.7846 -0.6126
vn -0.6801 0.7320 -0.0394
vt 0.214342 0.439849
vt 0.213572 0.435380
vt 0.215022 0.435138
vt 0.210157 0.440865
vt 0.202956 0.440264
vt 0.203507 0.439164
vt 0.227809 0.468940
vt 0.228862 0.468764
vt 0.229721 0.471698
vt 0.211647 0.439975
vt 0.209967 0.442550
vt 0.259883 0.504397
vt 0.257742 0.502878
vt 0.259544 0.502878
vt 0.254901 0.494327
vt 0.254152 0.496273
vt 0.253568 0.494287
vt 0.257145 0.496936
vt 0.258472 0.497068
vt 0.228330 0.470720
vt 0.221160 0.472169
vt 0.222151 0.473226
vt 0.219707 0.474602
vt 0.201200 0.438183
vt 0.201555 0.437643
vt 0.219187 0.424521
vt 0.234153 0.475175
vt 0.232394 0.473973
vt 0.232670 0.471170
vt 0.242609 0.438969
vt 0.239556 0.434747
vt 0.241348 0.434402
vt 0.238015 0.424774
vt 0.239327 0.424521
vt 0.262864 0.511401
vt 0.263928 0.509675
vt 0.264661 0.511493
vt 0.182954 0.509153
vt 0.180821 0.509460
vt 0.181419 0.508895
vt 0.194892 0.508767
vt 0.194526 0.511475
vt 0.193763 0.508571
vt 0.194048 0.504023
vt 0.263119 0.509634
vt 0.264661 0.505558
vt 0.199472 0.486542
vt 0.200584 0.481003
vt 0.200584 0.486806
vt 0.218523 0.473025
vt 0.219163 0.470341
vt 0.219163 0.472948
vt 0.200470 0.490536
vt 0.199687 0.487723
vt 0.200470 0.487326
vt 0.200304 0.474598
vt 0.199911 0.471437
vt 0.200584 0.471512
vt 0.231327 0.474123
vt 0.200584 0.480438
vt 0.199456 0.474631
vt 0.234673 0.460028
vt 0.236135 0.450063
vt 0.236135 0.460909
vt 0.262322 0.432933
vt 0.261045 0.424521
vt 0.262322 0.424802
vt 0.212616 0.434766
vt 0.258090 0.515299
vt 0.257357 0.512827
vt 0.258090 0.512647
vt 0.263707 0.454899
vt 0.262427 0.448778
vt 0.263707 0.448546
vt 0.211379 0.442328
vt 0.256843 0.504397
vt 0.254901 0.496318
vt 0.220398 0.475175
vt 0.218125 0.424698
vt 0.232751 0.474939
vt 0.239333 0.439227
vt 0.180475 0.511498
vt 0.195200 0.511870
vt 0.195200 0.503748
vt 0.219002 0.469821
vt 0.218523 0.464238
vt 0.219002 0.464035
vt 0.199738 0.480957
vt 0.218618 0.470491
vt 0.199472 0.490512
vt 0.265241 0.445591
vt 0.264185 0.445364
vt 0.265241 0.441067
vt 0.235064 0.449417
vt 0.260577 0.432550
vt 0.182954 0.513562
vt 0.256843 0.515543
vt 0.261824 0.455159
vt 0.253027 0.476169
vt 0.252386 0.476185
vt 0.253049 0.475882
vt 0.230016 0.468984
vt 0.232374 0.469404
vt 0.241250 0.440645
vt 0.242564 0.440800
vt 0.212739 0.441714
vt 0.214193 0.441018
vt 0.251167 0.475695
vt 0.228070 0.468552
vt 0.210060 0.442810
vt 0.239378 0.440374
vt 0.250835 0.476202
s 0
usemtl tree
f 2/1/1 12/2/1 25/3/1
f 5/4/2 7/5/2 8/6/2
f 32/7/3 43/8/3 1/9/3
f 3/10/4 4/11/4 5/4/4
f 1/12/5 5/13/5 6/14/5
f 8/15/6 35/16/6 34/17/6
f 6/14/7 8/18/7 34/19/7
f 6/20/8 33/21/8 32/7/8
f 34/22/9 10/23/9 33/21/9
f 8/6/10 9/24/10 11/25/10
f 12/2/11 27/26/11 25/3/11
f 24/27/12 28/28/12 31/29/12
f 31/30/13 25/31/13 24/32/13
f 24/32/14 27/33/14 26/34/14
f 36/35/15 17/36/15 24/37/15
f 36/38/16 15/39/16 16/40/16
f 18/41/17 23/42/17 20/43/17
f 16/44/18 18/41/18 20/43/18
f 16/45/19 29/46/19 17/36/19
f 17/47/20 19/48/20 28/49/20
f 20/50/21 30/51/21 29/52/21
f 19/53/22 30/54/22 22/55/22
f 18/56/23 22/57/23 21/58/23
f 1/9/24 28/28/24 15/59/24
f 15/60/25 19/61/25 18/56/25
f 24/62/26 13/63/26 36/64/26
f 12/65/27 13/66/27 14/67/27
f 3/10/28 36/68/28 12/2/28
f 7/69/29 10/70/29 9/71/29
f 4/72/30 33/73/30 7/74/30
f 2/1/31 3/10/31 12/2/31
f 5/4/32 4/11/32 7/5/32
f 1/9/33 6/20/33 32/7/33
f 40/75/34 4/11/34 3/10/34
f 1/12/5 3/76/5 5/13/5
f 8/15/35 11/77/35 35/16/35
f 6/14/36 5/13/36 8/18/36
f 6/20/37 34/22/37 33/21/37
f 34/22/38 35/78/38 10/23/38
f 8/6/39 7/5/39 9/24/39
f 12/2/11 14/79/11 27/26/11
f 24/27/12 17/80/12 28/28/12
f 31/30/40 2/81/40 25/31/40
f 24/32/14 25/31/14 27/33/14
f 36/35/15 16/45/15 17/36/15
f 36/38/16 1/82/16 15/39/16
f 18/41/41 21/83/41 23/42/41
f 16/44/42 15/84/42 18/41/42
f 16/85/43 20/86/43 29/87/43
f 17/47/44 29/88/44 19/48/44
f 20/50/45 23/89/45 30/51/45
f 19/53/46 29/90/46 30/54/46
f 18/56/47 19/61/47 22/57/47
f 1/9/48 31/29/48 28/28/48
f 15/91/49 28/92/49 19/93/49
f 24/62/26 26/94/26 13/63/26
f 12/65/27 36/95/27 13/66/27
f 3/96/50 1/82/50 36/38/50
f 7/69/51 33/97/51 10/70/51
f 4/72/52 32/98/52 33/73/52
f 42/99/53 41/100/53 4/101/53
f 39/102/54 44/103/54 31/29/54
f 37/104/55 2/81/55 31/30/55
f 44/105/56 37/104/56 31/30/56
f 38/106/57 40/75/57 3/10/57
f 38/106/58 2/1/58 45/107/58
f 39/102/59 1/9/59 43/8/59
f 41/100/60 32/108/60 4/101/60
f 40/75/61 39/102/61 46/109/61
f 14/67/62 26/34/62 27/33/62
f 9/71/63 35/16/63 11/77/63
f 23/89/64 22/55/64 30/51/64
f 32/7/65 46/109/65 43/8/65
f 40/75/66 42/110/66 4/11/66
f 37/104/67 45/111/67 2/81/67
f 38/106/68 3/10/68 2/1/68
f 39/102/69 31/29/69 1/9/69
f 41/100/70 46/112/70 32/108/70
f 41/100/61 42/110/61 40/75/61
f 40/75/61 38/106/61 45/107/61
f 37/104/61 44/105/61 39/102/61
f 40/75/61 45/107/61 37/104/61
f 46/109/61 41/100/61 40/75/61
f 39/102/61 43/8/61 46/109/61
f 40/75/61 37/104/61 39/102/61
f 14/67/62 13/63/62 26/34/62
f 9/71/71 10/23/71 35/16/71
f 23/89/72 21/58/72 22/55/72
