# Blender 4.3.2
# www.blender.org
mtllib tree2.mtl
o 2
v 0.111286 -2.966628 0.444509
v 0.835498 -2.841626 0.849749
v 0.068045 -3.130000 0.433057
v 0.795616 -3.130000 0.593030
v 0.770524 -3.130000 0.437380
v 0.416002 -3.130000 1.237807
v 0.093807 -3.130000 1.134312
v 0.894550 -3.130000 0.808485
v 0.815468 -3.130000 1.010155
v -0.076316 -3.130000 0.870516
v 0.355263 -3.130000 0.280030
v 0.061237 -3.130000 0.541558
v 0.446679 -3.130000 0.322766
v 0.730533 -3.130000 1.103969
v 0.784635 -3.130000 1.129976
v 0.164267 -3.130000 0.400769
v 0.148365 -1.530001 0.984290
v 0.643621 -1.530001 1.222418
v 0.026548 -1.530001 0.843323
v 0.340036 -1.530001 0.388664
v 0.085534 -1.530001 1.011061
v 0.785852 -1.530001 0.583920
v 0.811156 -1.530001 0.740912
v 0.677722 -1.530001 1.089696
v 0.021121 -1.530001 0.990383
v 0.669284 -1.530001 0.542639
v -0.012910 -1.530001 0.937615
v 0.221312 -1.530001 0.463759
v 0.068917 -2.248314 0.643916
vn 0.9330 0.0469 0.3569
vn -0.8873 0.0741 -0.4553
vn 0.9872 0.0051 -0.1591
vn -0.9211 0.0528 -0.3858
vn 0.3835 0.2068 0.9001
vn -0.5338 0.0523 -0.8440
vn 0.9222 0.1371 0.3616
vn -0.4316 -0.0899 0.8976
vn -0.3146 0.1490 -0.9375
vn -0.8403 0.0106 0.5419
vn 0.3327 0.0829 -0.9394
vn 0.8825 0.2387 -0.4052
vn -0.3049 0.0716 0.9497
vn 0.9661 0.0708 0.2482
vn 0.4227 0.0654 -0.9039
vn -0.9639 0.2594 -0.0605
vn -0.0000 -1.0000 -0.0000
vn -0.0000 1.0000 -0.0000
vn 0.9872 0.0051 -0.1592
vn -0.9210 0.0528 -0.3860
vn -0.9213 0.0527 -0.3852
vn -0.9212 0.0527 -0.3855
vn 0.3831 0.2067 0.9003
vn -0.5336 0.0522 -0.8441
vn -0.5350 0.0523 -0.8432
vn -0.4315 -0.0899 0.8976
vn -0.8403 0.0106 0.5420
vn 0.3325 0.0828 -0.9395
vn -0.3050 0.0716 0.9496
vn 0.9660 0.0708 0.2486
vn 0.9662 0.0708 0.2480
vn 0.4226 0.0654 -0.9040
vt 0.180129 0.501500
vt 0.177181 0.492659
vt 0.180057 0.491405
vt 0.207499 0.510171
vt 0.205429 0.514826
vt 0.205964 0.504872
vt 0.178566 0.504145
vt 0.175943 0.493049
vt 0.206923 0.503865
vt 0.209899 0.515609
vt 0.222819 0.501438
vt 0.226842 0.490397
vt 0.227274 0.490392
vt 0.205481 0.503563
vt 0.204444 0.514530
vt 0.181888 0.503021
vt 0.180224 0.503751
vt 0.220655 0.501466
vt 0.222085 0.489779
vt 0.240529 0.561395
vt 0.239765 0.561450
vt 0.240126 0.560267
vt 0.225759 0.501762
vt 0.228298 0.490554
vt 0.227940 0.502240
vt 0.245786 0.561185
vt 0.244826 0.549945
vt 0.245900 0.549922
vt 0.227861 0.490458
vt 0.181142 0.490968
vt 0.242802 0.561243
vt 0.241723 0.549988
vt 0.206058 0.503780
vt 0.209034 0.515470
vt 0.177337 0.504528
vt 0.209941 0.504362
vt 0.203897 0.503095
vt 0.220136 0.501399
vt 0.182867 0.502622
vt 0.241941 0.561254
s 0
usemtl tree
f 2/1/1 23/2/1 24/3/1
f 29/4/2 28/5/2 1/6/2
f 4/7/3 22/8/3 23/2/3
f 12/9/4 27/10/4 29/4/4
f 6/11/5 17/12/5 21/13/5
f 16/14/6 28/5/6 20/15/6
f 9/16/7 8/17/7 2/1/7
f 14/18/8 18/19/8 17/12/8
f 16/20/9 3/21/9 1/22/9
f 7/23/10 27/24/10 10/25/10
f 5/26/11 26/27/11 22/28/11
f 8/17/12 4/7/12 2/1/12
f 7/23/13 21/13/13 25/29/13
f 9/16/14 24/3/14 18/30/14
f 13/31/15 20/32/15 26/27/15
f 3/33/16 12/9/16 1/6/16
f 12/9/17 13/31/17 9/16/17
f 17/12/18 23/2/18 28/5/18
f 29/4/2 19/34/2 28/5/2
f 23/2/3 2/1/3 4/7/3
f 4/7/19 5/35/19 22/8/19
f 29/4/20 1/6/20 12/9/20
f 12/9/21 10/36/21 27/10/21
f 27/10/22 19/34/22 29/4/22
f 6/11/23 14/18/23 17/12/23
f 20/15/24 11/37/24 16/14/24
f 16/14/25 1/6/25 28/5/25
f 14/18/26 15/38/26 18/19/26
f 7/23/27 25/29/27 27/24/27
f 5/26/28 13/31/28 26/27/28
f 7/23/29 6/11/29 21/13/29
f 18/30/30 15/39/30 9/16/30
f 9/16/31 2/1/31 24/3/31
f 13/31/32 11/40/32 20/32/32
f 14/18/17 6/11/17 7/23/17
f 7/23/17 10/36/17 12/9/17
f 12/9/17 3/21/17 16/14/17
f 16/14/17 11/40/17 13/31/17
f 13/31/17 5/35/17 4/7/17
f 4/7/17 8/17/17 9/16/17
f 9/16/17 15/38/17 14/18/17
f 14/18/17 7/23/17 12/9/17
f 12/9/17 16/14/17 13/31/17
f 13/31/17 4/7/17 9/16/17
f 9/16/17 14/18/17 12/9/17
f 27/10/18 25/29/18 21/13/18
f 17/12/18 18/19/18 24/3/18
f 27/10/18 21/13/18 17/12/18
f 28/5/18 19/34/18 27/10/18
f 26/27/18 20/32/18 28/5/18
f 23/2/18 22/8/18 26/27/18
f 17/12/18 24/3/18 23/2/18
f 28/5/18 27/10/18 17/12/18
f 23/2/18 26/27/18 28/5/18
