# Blender 4.3.2
# www.blender.org
mtllib barndoor_right.mtl
o Cube
v -1.500000 -3.027980 0.577052
v -1.500000 2.972020 0.577052
v 2.500000 -3.027980 0.577052
v 2.500000 2.972020 0.577052
v -1.500000 -3.027980 1.077052
v -1.500000 2.972020 1.077052
v 2.500000 -3.027980 1.077052
v 2.500000 2.972020 1.077052
vn -0.0000 -0.0000 -1.0000
vn 1.0000 -0.0000 -0.0000
vn -0.0000 -0.0000 1.0000
vn -1.0000 -0.0000 -0.0000
vn -0.0000 -1.0000 -0.0000
vn -0.0000 1.0000 -0.0000
vt 0.000000 1.000000
vt 1.000000 0.000000
vt 0.000000 0.000000
vt -0.002461 1.000000
vt 0.064902 0.000000
vt -0.002461 0.000000
vt 1.000000 1.000000
vt 0.064902 1.000000
s 0
usemtl Material.004
f 2/1/1 3/2/1 1/3/1
f 4/4/2 7/5/2 3/6/2
f 8/7/3 5/3/3 7/2/3
f 6/8/4 1/6/4 5/5/4
f 7/8/5 1/6/5 3/4/5
f 4/4/6 6/5/6 8/8/6
f 2/1/1 4/7/1 3/2/1
f 4/4/2 8/8/2 7/5/2
f 8/7/3 6/1/3 5/3/3
f 6/8/4 2/4/4 1/6/4
f 7/8/5 5/5/5 1/6/5
f 4/4/6 2/6/6 6/5/6
