# Blender 4.3.2
# www.blender.org
mtllib gib1.mtl
o Cube
v 2.214637 -2.673444 0.283763
v -0.468663 -0.865667 1.304076
v -1.085488 -1.124504 0.838421
v 1.905473 -1.327761 0.534289
v 0.835966 -3.429093 0.498333
v 1.888262 -2.577347 -0.334200
v 0.180474 -1.623810 -0.512329
v -0.106727 -3.185880 0.127244
v 1.746603 -1.514523 1.176834
v 1.866476 -1.523470 -0.123499
v 0.026499 -0.633165 0.071429
v 2.050854 -2.467105 1.298701
v -0.818215 -1.154713 -0.110015
v 0.197837 -3.029779 1.224958
vn 0.8923 -0.4350 -0.1205
vn -0.2754 0.6041 0.7478
vn -0.9286 0.2644 0.2604
vn 0.7132 0.6976 0.0682
vn 0.1236 -0.9921 -0.0211
vn 0.5007 -0.3423 -0.7951
vn -0.1215 0.0901 -0.9885
vn -0.5458 -0.7393 -0.3943
vn 0.4650 0.5085 0.7247
vn 0.6319 0.4886 -0.6016
vn 0.0034 0.9341 -0.3569
vn 0.6440 -0.2353 0.7279
vn -0.7251 0.2965 -0.6215
vn -0.3257 -0.5826 0.7447
vt 0.767578 0.317109
vt 0.705623 0.626994
vt 0.585870 0.288852
vt 0.933807 0.216645
vt 0.576578 0.451988
vt 0.981967 0.515081
vt 0.512205 0.684541
vt 0.309118 0.184075
vt 0.422777 0.744307
vt 0.631893 0.138174
vt 0.891059 0.441415
vt 0.879592 0.634833
vt 0.338560 0.577516
vt 0.383835 0.597490
vt 0.090178 0.735425
vt 0.338560 0.888782
vt 0.090178 0.630868
vt 0.011588 0.351987
vt 0.388941 0.238329
vt 0.299386 0.561104
vt 0.885998 0.696788
vt 0.844345 0.252479
vt 0.192961 0.215065
vt 0.299386 0.138174
vt 0.701658 0.735425
vt 0.388941 0.184075
vt 0.844345 0.629625
vt 0.192961 0.820416
vt 0.287435 0.349525
vt 0.323269 0.629625
vt 0.879592 0.626994
vt 0.885998 0.317109
vt 0.285854 0.820416
vt 0.933807 0.349525
s 1
usemtl Material.002
f 6/1/6 10/2/10 1/3/1
f 12/4/12 5/5/5 1/6/1
f 1/3/1 10/2/10 4/7/4
f 14/8/14 3/9/3 8/10/8
f 4/11/4 10/12/10 11/13/11
f 7/14/7 13/15/13 11/16/11
f 11/13/11 13/17/13 3/18/3
f 5/5/5 12/4/12 14/19/14
f 8/20/8 6/21/6 5/5/5
f 9/22/9 11/13/11 2/23/2
f 8/24/8 13/15/13 7/14/7
f 8/10/8 3/9/3 13/25/13
f 14/26/14 9/27/9 2/28/2
f 6/21/6 1/6/1 5/5/5
f 4/7/4 12/29/12 1/3/1
f 4/7/4 9/30/9 12/29/12
f 7/14/7 11/16/11 10/31/10
f 3/18/3 2/23/2 11/13/11
f 5/5/5 14/19/14 8/20/8
f 7/14/7 6/32/6 8/24/8
f 7/14/7 10/31/10 6/32/6
f 14/8/14 2/33/2 3/9/3
f 9/22/9 4/11/4 11/13/11
f 14/26/14 12/34/12 9/27/9
