# Blender 4.3.2
# www.blender.org
mtllib hportal2.mtl
o Sphere.001
v 3.853984 0.518561 -2.906663
v 2.871623 -2.135350 -1.924303
v 2.871623 3.172472 2.818953
v 3.853984 0.518561 3.801314
v 2.871623 -2.135350 2.818953
v -1.871632 3.172471 2.818953
v -2.853993 0.518561 3.801313
v -1.871632 -2.135350 2.818953
v 0.499996 -3.234635 0.447325
v 0.499996 4.271757 0.447325
v -1.871632 3.172471 -1.924303
v -2.853992 0.518561 -2.906664
v -1.871632 -2.135350 -1.924303
v 2.871624 3.172470 -1.924302
vn -0.7071 -0.0000 0.7071
vn -0.4947 0.7145 0.4947
vn -0.4947 -0.7145 -0.4947
vn -0.7071 -0.0000 -0.7071
vn -0.4947 0.7145 -0.4947
vn 0.4947 -0.7145 -0.4947
vn 0.7071 -0.0000 -0.7071
vn 0.4947 0.7145 -0.4947
vn -0.0000 1.0000 -0.0000
vn -0.0000 -1.0000 -0.0000
vn 0.4947 -0.7145 0.4947
vn 0.7071 -0.0000 0.7071
vn 0.4947 0.7145 0.4947
vn -0.4947 -0.7145 0.4947
vt 0.625000 0.000000
vt 0.500000 0.250000
vt 0.750000 0.250000
vt 0.500000 0.500000
vt 0.750000 0.750000
vt 0.750000 0.500000
vt 0.500000 0.750000
vt 0.625000 1.000000
vt 0.250000 0.500000
vt 0.250000 0.250000
vt 0.250000 0.750000
vt 0.375000 1.000000
vt 0.375000 0.000000
vt 0.125000 0.000000
vt 0.000000 0.250000
vt 0.000000 0.500000
vt 0.000000 0.750000
vt 0.125000 1.000000
vt 0.875000 0.000000
vt 1.000000 0.250000
vt 1.000000 0.750000
vt 1.000000 0.500000
vt 0.875000 1.000000
s 1
usemtl Material.001
f 9/1/9 5/2/5 2/3/2
f 4/4/4 14/5/14 1/6/1
f 5/2/5 1/6/1 2/3/2
f 14/5/14 3/7/3 10/8/10
f 7/9/7 3/7/3 4/4/4
f 8/10/8 4/4/4 5/2/5
f 3/7/3 6/11/6 10/12/10
f 9/13/9 8/10/8 5/2/5
f 9/14/9 13/15/13 8/10/8
f 12/16/12 6/11/6 7/9/7
f 13/15/13 7/9/7 8/10/8
f 6/11/6 11/17/11 10/18/10
f 9/19/9 2/3/2 13/20/13
f 1/6/1 11/21/11 12/22/12
f 2/3/2 12/22/12 13/20/13
f 11/21/11 14/5/14 10/23/10
f 4/4/4 3/7/3 14/5/14
f 5/2/5 4/4/4 1/6/1
f 7/9/7 6/11/6 3/7/3
f 8/10/8 7/9/7 4/4/4
f 12/16/12 11/17/11 6/11/6
f 13/15/13 12/16/12 7/9/7
f 1/6/1 14/5/14 11/21/11
f 2/3/2 1/6/1 12/22/12
