# Blender 4.3.2
# www.blender.org
mtllib mealworm.mtl
o Mesh
v 0.231443 -2.479709 5.831229
v 0.517082 -1.158850 4.205937
v 0.190994 -2.878762 -7.184765
v 0.821605 -2.324216 6.602431
v 0.530640 -2.870520 6.333823
v 0.048061 -2.179148 2.576609
v 0.364368 -2.527237 6.823211
v 0.247185 -1.750169 -5.013451
v 0.656206 -1.922467 -6.588447
v 0.747384 -1.463058 5.446935
v 0.706774 -3.036105 -7.155662
v 0.284742 -1.735806 6.214926
v 0.372200 -2.836655 -0.895398
v 0.499424 -2.405542 2.731185
v 0.639673 -2.298329 -7.901673
v -0.057297 -1.689197 4.874794
v 0.511421 -2.929181 0.592102
v 0.031463 -1.665381 -0.931154
v 1.172280 -2.259862 -1.628361
v -0.087916 -1.932041 -2.321724
v 0.972753 -1.649700 -1.771656
v 0.057753 -2.243196 6.363705
v 0.438142 -1.494455 -2.318231
v 0.765144 -2.880713 -3.728067
v 0.889050 -1.517631 1.617422
v 1.030076 -2.606983 -4.791055
v 0.625259 -1.547290 -4.326270
v 1.108957 -2.191888 1.556798
v -0.072613 -2.502564 -2.850302
v -0.189779 -2.198377 0.724503
v 0.416570 -2.838102 -5.268870
v 0.416757 -1.341806 1.738695
v -0.102753 -1.718795 2.364947
v 1.082645 -1.867927 3.476239
v 1.135249 -1.916213 -4.233335
v -0.022954 -2.283646 -5.517223
v 0.337520 -2.946012 -3.995132
v 1.075398 -2.292794 -5.877048
v 0.909813 -2.753449 0.788400
v 0.024243 -2.707933 0.199376
v 0.785190 -2.352904 5.783170
v 0.080113 -1.283448 3.422324
v 0.209282 -2.282825 -7.588032
v 1.011919 -2.703590 -6.907254
v 0.535741 -2.576801 5.321596
v 0.741312 -2.917332 5.857922
v 0.953473 -2.603939 5.243683
v 0.769946 -2.541265 5.659465
v 0.766595 -2.478907 4.881131
v 0.754800 -3.024580 5.508983
v 0.061472 -2.593930 5.321997
v 0.300709 -2.540709 5.653446
v 0.463797 -2.610783 5.173246
v 0.273403 -2.457870 4.871673
v 0.272540 -2.918990 5.857297
v 0.285579 -3.025620 5.503088
v 0.160019 -2.086060 4.121535
v 0.129744 -2.359192 3.824392
v 0.123767 -2.620712 4.150878
v -0.043291 -2.277380 4.061334
v 0.315522 -2.364822 4.085533
v 0.114130 -2.890543 3.913205
v 0.897508 -2.185664 4.019745
v 0.806133 -2.895699 3.996326
v 0.816617 -2.200560 4.286777
v 0.579798 -2.366892 4.111544
v 0.670269 -2.369928 3.904180
v 0.180029 -2.226953 2.994418
v 0.376346 -2.292338 3.298981
v -0.045378 -2.345089 3.189025
v 0.114597 -2.080521 3.500702
v 0.181674 -2.792941 3.297172
v 0.765439 -2.780116 3.297567
v 0.853680 -2.074522 3.093882
v 0.780350 -2.420906 2.986287
v 0.583579 -2.398458 3.151103
v 0.677390 -2.085574 3.446650
v 0.907123 -2.465528 3.251928
vn -0.5627 -0.8057 -0.1852
vn 0.6401 -0.7591 -0.1183
vn 0.0913 -0.9931 0.0731
vn -0.9980 -0.0154 -0.0618
vn -0.5889 0.8032 -0.0905
vn -0.7078 0.3903 -0.5888
vn 0.1464 0.9874 -0.0606
vn 0.3228 0.9149 -0.2424
vn 0.7829 0.0916 0.6154
vn -0.2116 -0.2149 0.9534
vn -0.9481 -0.0240 0.3170
vn -0.2891 0.8011 0.5241
vn 0.5839 0.7631 0.2769
vn 0.2642 0.2597 -0.9288
vn -0.7117 -0.6304 -0.3100
vn 0.3069 -0.8885 -0.3412
vn 0.9045 0.4221 -0.0615
vn 0.9313 -0.3617 -0.0417
vn 0.9897 0.1145 -0.0860
vn -0.2983 -0.9534 0.0451
vn 0.8165 -0.5763 -0.0338
vn 0.1646 0.9803 0.1096
vn 0.6962 -0.7149 0.0652
vn 0.9804 -0.1854 0.0662
vn 0.0896 -0.9882 0.1241
vn -0.0672 -0.9918 0.1091
vn -0.9459 0.3148 0.0790
vn -0.9925 -0.1151 0.0403
vn -0.7118 -0.7018 0.0276
vn -0.7822 -0.6127 0.1133
vn 0.9980 -0.0634 -0.0076
vn 0.4782 -0.8780 0.0208
vn -0.5907 0.8069 -0.0006
vn -0.1376 0.9876 -0.0752
vn -0.9683 0.2487 -0.0225
vn -0.9092 0.4146 -0.0383
vn -0.2040 0.9786 -0.0278
vn -0.7013 0.7126 -0.0199
vn 0.9906 -0.1366 -0.0091
vn 0.7096 0.7039 -0.0315
vn 0.6979 0.7156 -0.0302
vn -0.3894 -0.9201 -0.0432
vn -0.9275 -0.3733 -0.0211
vn -0.3425 -0.9391 -0.0298
vn 0.0694 0.6813 0.7288
vn -0.9213 0.3382 -0.1919
vn 0.0050 -0.4794 0.8776
vn 0.0183 0.4064 -0.9135
vn 0.0334 -0.9989 -0.0340
vn 0.9611 0.2172 -0.1704
vn 0.2087 0.6609 0.7208
vn -0.9501 0.2814 -0.1345
vn 0.0363 -0.4503 0.8921
vn -0.0944 0.4009 -0.9112
vn 0.0692 -0.9974 -0.0198
vn 0.9416 0.0956 -0.3229
vn 0.9527 0.1673 0.2537
vn -0.1302 -0.4409 0.8880
vn -0.0476 -0.9466 -0.3188
vn -0.9368 0.3202 0.1408
vn 0.0651 0.9233 0.3786
vn 0.0766 0.2248 -0.9714
vn 0.2185 0.5633 0.7968
vn -0.9348 0.1576 0.3184
vn 0.0702 -0.9824 -0.1732
vn -0.4336 0.2113 -0.8760
vn 0.6118 0.7262 -0.3136
vn -0.1598 0.5084 0.8461
vn 0.1447 0.4199 -0.8960
vn -0.9920 -0.1261 -0.0098
vn 0.9003 0.1463 0.4099
vn 0.0012 -0.9749 0.2228
vn 0.0987 -0.1286 -0.9868
vn 0.3167 0.8059 -0.5003
vn 0.7964 -0.3006 0.5247
vn -0.9865 -0.1216 -0.1100
vn -0.3082 0.5146 0.8001
vn 0.0378 -0.9685 0.2460
vt 0.170888 0.454625
vt 0.170166 0.456382
vt 0.138025 0.432045
vt 0.817797 0.476911
vt 0.788862 0.504316
vt 0.933364 0.476341
vt 0.748628 0.513484
vt 0.879421 0.497759
vt 0.123131 0.459064
vt 0.111627 0.449285
vt 0.133911 0.464721
vt 0.144956 0.488520
vt 0.189349 0.504965
vt 0.949479 0.475796
vt 0.913153 0.449044
vt 0.912276 0.443019
vt 0.743044 0.493420
vt 0.901751 0.454179
vt 0.840057 0.474314
vt 0.804956 0.443936
vt 0.775357 0.451583
vt 0.257253 0.524809
vt 0.455974 0.446470
vt 0.410918 0.468380
vt 0.344150 0.457737
vt 0.468937 0.438033
vt 0.221596 0.498059
vt 0.459169 0.472380
vt 0.489593 0.447820
vt 0.351842 0.470007
vt 0.300613 0.491658
vt 0.715994 0.440843
vt 0.299434 0.521440
vt 0.398947 0.521264
vt 0.363463 0.500307
vt 0.633770 0.492306
vt 0.635204 0.515930
vt 0.556401 0.506314
vt 0.596381 0.475197
vt 0.405428 0.512314
vt 0.604743 0.507012
vt 0.553085 0.438581
vt 0.660961 0.458093
vt 0.731125 0.441129
vt 0.175980 0.446118
vt 0.195418 0.445192
vt 0.165516 0.425986
vt 0.216659 0.453007
vt 0.184408 0.424910
vt 0.197944 0.444545
vt 0.176474 0.447171
vt 0.193763 0.445247
vt 0.165518 0.425991
vt 0.217542 0.453897
vt 0.184505 0.424961
vt 0.201396 0.444937
vt 0.265251 0.460007
vt 0.263820 0.447968
vt 0.274454 0.433619
vt 0.265864 0.464708
vt 0.264166 0.471194
vt 0.278333 0.460648
vt 0.257261 0.468472
vt 0.263502 0.460145
vt 0.271918 0.433681
vt 0.273923 0.458685
vt 0.267672 0.467810
vt 0.303960 0.474276
vt 0.323240 0.468031
vt 0.316852 0.462513
vt 0.312704 0.463961
vt 0.310728 0.438523
vt 0.326302 0.459654
vt 0.320073 0.474451
vt 0.314688 0.458578
vt 0.319312 0.460373
vt 0.304971 0.475369
vt 0.310903 0.438593
s 1
usemtl Material.002
f 1/1/1 41/2/2 5/3/3
f 36/4/4 8/5/5 43/6/6
f 8/5/5 27/7/7 9/8/8
f 5/3/3 4/9/9 7/10/10
f 22/11/11 5/3/3 7/10/10
f 1/1/1 5/3/3 22/11/11
f 12/12/12 4/9/9 10/13/13
f 43/6/6 8/5/5 9/8/8
f 43/6/6 15/14/14 3/15/15
f 15/14/14 11/16/16 3/15/15
f 9/8/8 27/7/7 35/17/17
f 15/14/14 44/18/18 11/16/16
f 38/19/19 44/18/18 15/14/14
f 12/12/12 22/11/11 7/10/10
f 4/9/9 12/12/12 7/10/10
f 3/15/15 11/16/16 31/20/20
f 38/19/19 26/21/21 11/16/16
f 26/21/21 31/20/20 11/16/16
f 12/12/12 10/13/13 2/22/22
f 39/23/23 28/24/24 14/25/25
f 17/26/26 39/23/23 14/25/25
f 12/12/12 2/22/22 16/27/27
f 30/28/28 40/29/29 6/30/30
f 40/29/29 17/26/26 6/30/30
f 38/19/19 15/14/14 9/8/8
f 15/14/14 43/6/6 9/8/8
f 1/1/1 22/11/11 16/27/27
f 4/9/9 41/2/2 34/31/31
f 24/32/32 31/20/20 26/21/21
f 42/33/33 32/34/34 33/35/35
f 34/31/31 10/13/13 4/9/9
f 22/11/11 12/12/12 16/27/27
f 6/30/30 17/26/26 14/25/25
f 2/22/22 42/33/33 16/27/27
f 8/5/5 20/36/36 23/37/37
f 33/35/35 18/38/38 20/36/36
f 33/35/35 20/36/36 30/28/28
f 19/39/39 25/40/40 28/24/24
f 19/39/39 21/41/41 25/40/40
f 17/26/26 40/29/29 13/42/42
f 4/9/9 5/3/3 41/2/2
f 27/7/7 23/37/37 21/41/41
f 1/1/1 16/27/27 6/30/30
f 23/37/37 25/40/40 21/41/41
f 18/38/38 32/34/34 23/37/37
f 18/38/38 33/35/35 32/34/34
f 34/31/31 41/2/2 14/25/25
f 23/37/37 32/34/34 25/40/40
f 29/43/43 30/28/28 20/36/36
f 29/43/43 20/36/36 36/4/4
f 24/32/32 19/39/39 39/23/23
f 18/38/38 23/37/37 20/36/36
f 6/30/30 33/35/35 30/28/28
f 34/31/31 28/24/24 25/40/40
f 19/39/39 24/32/32 26/21/21
f 35/17/17 19/39/39 26/21/21
f 35/17/17 38/19/19 9/8/8
f 24/32/32 39/23/23 17/26/26
f 17/26/26 13/42/42 24/32/32
f 31/20/20 37/44/44 36/4/4
f 13/42/42 37/44/44 24/32/32
f 27/7/7 21/41/41 35/17/17
f 35/17/17 26/21/21 38/19/19
f 10/13/13 34/31/31 25/40/40
f 25/40/40 2/22/22 10/13/13
f 29/43/43 37/44/44 13/42/42
f 34/31/31 14/25/25 28/24/24
f 40/29/29 29/43/43 13/42/42
f 40/29/29 30/28/28 29/43/43
f 37/44/44 31/20/20 24/32/32
f 16/27/27 42/33/33 33/35/35
f 6/30/30 16/27/27 33/35/35
f 21/41/41 19/39/39 35/17/17
f 36/4/4 20/36/36 8/5/5
f 29/43/43 36/4/4 37/44/44
f 28/24/24 39/23/23 19/39/39
f 38/19/19 11/16/16 44/18/18
f 31/20/20 36/4/4 3/15/15
f 1/1/1 14/25/25 41/2/2
f 1/1/1 6/30/30 14/25/25
f 42/33/33 2/22/22 32/34/34
f 32/34/34 2/22/22 25/40/40
f 8/5/5 23/37/37 27/7/7
f 3/15/15 36/4/4 43/6/6
f 48/45/45 45/46/46 46/47/47
f 45/46/46 49/48/48 50/49/49
f 50/49/49 49/48/48 47/50/50
f 48/45/45 47/50/50 49/48/48
f 49/48/48 45/46/46 48/45/45
f 50/49/49 46/47/47 45/46/46
f 46/47/47 50/49/49 47/50/50
f 46/47/47 47/50/50 48/45/45
f 52/51/51 51/52/52 55/53/53
f 51/52/52 54/54/54 56/55/55
f 56/55/55 54/54/54 53/56/56
f 52/51/51 53/56/56 54/54/54
f 56/55/55 55/53/53 51/52/52
f 55/53/53 56/55/55 53/56/56
f 55/53/53 53/56/56 52/51/51
f 54/54/54 51/52/52 52/51/51
f 61/57/57 59/58/58 62/59/59
f 60/60/60 57/61/61 58/62/62
f 61/57/57 58/62/62 57/61/61
f 60/60/60 59/58/58 57/61/61
f 59/58/58 61/57/57 57/61/61
f 58/62/62 61/57/57 62/59/59
f 59/58/58 60/60/60 62/59/59
f 62/59/59 60/60/60 58/62/62
f 65/63/63 66/64/64 64/65/65
f 67/66/66 63/67/67 64/65/65
f 66/64/64 63/67/67 67/66/66
f 63/67/67 66/64/64 65/63/63
f 66/64/64 67/66/66 64/65/65
f 63/67/67 65/63/63 64/65/65
f 71/68/68 68/69/69 70/70/70
f 68/69/69 69/71/71 72/72/72
f 72/72/72 70/70/70 68/69/69
f 69/71/71 70/70/70 72/72/72
f 71/68/68 69/71/71 68/69/69
f 71/68/68 70/70/70 69/71/71
f 75/73/73 74/74/74 78/75/75
f 76/76/76 77/77/77 74/74/74
f 78/75/75 76/76/76 73/78/78
f 75/73/73 76/76/76 74/74/74
f 77/77/77 78/75/75 74/74/74
f 75/73/73 73/78/78 76/76/76
f 73/78/78 75/73/73 78/75/75
f 77/77/77 76/76/76 78/75/75
