# Blender 4.3.2
# www.blender.org
mtllib overhang.mtl
o Cube.001
v 0.000000 0.000000 1.000000
v 0.000000 -1.000000 0.000000
v 1.000000 0.000000 1.000000
v 1.000000 -1.000000 0.000000
v 0.000000 0.070711 0.929289
v 0.000000 -0.929289 -0.070711
v 1.000000 0.070711 0.929289
v 1.000000 -0.929289 -0.070711
vn -0.0000 -0.7071 0.7071
vn -0.0000 -0.7071 -0.7071
vn -0.0000 0.7071 -0.7071
vn -0.0000 0.7071 0.7071
vn -1.0000 -0.0000 -0.0000
vn 1.0000 -0.0000 -0.0000
vt 0.033020 0.933959
vt 0.966980 0.000000
vt 0.033020 0.000000
vt 0.966980 0.066041
vt 0.033020 1.000000
vt 0.966980 1.000000
vt 0.033020 0.066041
vt 0.467622 0.920979
vt 0.532378 0.005198
vt 0.467622 0.005198
vt 0.532378 0.920979
vt 0.966980 0.933959
s 1
usemtl Material.001
f 2/1/1 3/2/1 1/3/1
f 2/3/2 8/4/2 4/2/2
f 6/5/3 7/4/3 8/6/3
f 3/2/4 5/7/4 1/3/4
f 1/8/5 6/9/5 2/10/5
f 4/10/6 7/11/6 3/8/6
f 2/1/1 4/12/1 3/2/1
f 2/3/2 6/7/2 8/4/2
f 6/5/3 5/7/3 7/4/3
f 3/2/4 7/4/4 5/7/4
f 1/8/5 5/11/5 6/9/5
f 4/10/6 8/9/6 7/11/6
