# Blender 4.3.2
# www.blender.org
mtllib tree1.mtl
o 1
v -0.023583 -3.130000 1.572487
v 1.226377 -3.130000 1.246781
v -0.349290 -3.130000 0.322527
v 0.900670 -3.130000 -0.003179
v 0.102698 -1.727771 1.151918
v 0.801920 -1.727772 1.118644
v 0.768646 -1.727772 0.419422
v -0.343011 -3.130000 0.988306
v 1.220098 -3.130000 0.581002
v -0.097077 -2.055874 0.848546
v 0.642196 -3.130000 1.566208
v 0.234891 -3.130000 0.003100
v 0.456477 -1.727772 1.265578
v 0.361118 -2.146945 0.238255
v 0.068045 -1.530001 0.433057
v 0.795616 -1.530001 0.593030
v 0.770524 -1.530001 0.437380
v 0.416003 -1.530001 1.237807
v 0.093807 -1.530001 1.134312
v 0.894550 -1.530001 0.808485
v 0.815468 -1.530002 1.010155
v -0.076316 -1.530001 0.870516
v 0.355263 -1.530001 0.280030
v 0.061237 -1.530001 0.541558
v 0.446679 -1.530001 0.322765
v 0.730533 -1.530001 1.103969
v 0.784635 -1.530001 1.129976
v 0.164267 -1.530001 0.400769
v 0.361118 -2.146945 0.238255
v 0.164267 -1.530001 0.400769
v 0.068045 -1.530001 0.433057
v 0.061237 -1.530001 0.541558
v 0.164267 -1.530001 0.400769
v 0.164267 -1.530001 0.400769
v 0.068045 -1.530001 0.433057
v 0.061237 -1.530001 0.541558
v 0.164267 -1.530001 0.400769
v 0.061237 -1.530001 0.541558
v 0.164267 -1.530001 0.400769
v 0.164267 -1.530001 0.400769
v 0.068045 -1.530001 0.433057
v 0.061237 -1.530001 0.541558
v 0.164267 -1.530001 0.400769
v 0.164267 -1.530001 0.400769
v 0.061237 -1.530001 0.541558
v 0.164267 -1.530001 0.400769
v -0.097077 -2.055874 0.848546
v 0.061237 -1.530001 0.541558
v 0.061237 -1.530001 0.541558
v 0.061237 -1.530001 0.541558
v 0.061237 -1.530001 0.541558
v 0.068045 -1.530001 0.433057
v 0.061237 -1.530001 0.541558
v 0.164267 -1.530001 0.400769
v 0.164267 -1.530001 0.400769
v 0.061237 -1.530001 0.541558
v 0.164267 -1.530001 0.400769
v 0.061237 -1.530001 0.541558
v 0.068045 -1.530001 0.433057
v 0.061237 -1.530001 0.541558
v 0.164267 -1.530001 0.400769
v 0.164267 -1.530001 0.400769
v 0.061237 -1.530001 0.541558
v 0.164267 -1.530001 0.400769
v 0.061237 -1.530001 0.541558
v 0.068045 -1.530001 0.433057
v 0.061237 -1.530001 0.541558
v 0.164267 -1.530001 0.400769
v 0.164267 -1.530001 0.400769
v 0.061237 -1.530001 0.541558
v 0.164267 -1.530001 0.400769
v 0.061237 -1.530001 0.541558
v -0.097077 -2.055874 0.848546
v -0.097077 -2.055874 0.848546
v 0.061237 -1.530001 0.541558
v 0.061237 -1.530001 0.541558
v 0.061237 -1.530001 0.541558
v 0.061237 -1.530001 0.541558
v 0.061237 -1.530001 0.541558
v 0.061237 -1.530001 0.541558
v 0.061237 -1.530001 0.541558
vn -0.8403 0.0105 0.5420
vn 0.8824 0.2373 -0.4062
vn -0.8485 0.2546 0.4639
vn -0.4630 0.2620 -0.8468
vn 0.3798 0.2417 0.8929
vn -0.2264 0.3418 0.9121
vn 0.3831 0.2051 0.9007
vn 0.9661 0.0702 0.2486
vn 0.9573 0.2890 -0.0090
vn -0.3051 0.0708 0.9497
vn 0.3327 0.0825 -0.9394
vn -0.2919 0.2988 0.9086
vn 0.1163 0.2966 -0.9479
vn 0.8556 0.2216 -0.4678
vn -0.9029 0.1960 0.3825
vn 0.4680 0.2199 0.8559
vn -0.4315 -0.0892 0.8977
vn 0.9221 0.1361 0.3622
vn 0.4226 0.0652 -0.9040
vn 0.0092 0.2108 0.9775
vn -0.0092 0.2337 -0.9723
vn 0.9872 0.0051 -0.1592
vn -0.0000 1.0000 -0.0000
vn -0.0000 -1.0000 -0.0000
vn -0.3144 0.1468 -0.9379
vn -0.9213 0.0525 -0.3852
vn -0.5336 0.0521 -0.8441
vn -0.9649 0.2558 -0.0597
vn -0.8403 0.0105 0.5419
vn 0.8832 0.2356 -0.4056
vn 0.3832 0.2049 0.9006
vn -0.3051 0.0709 0.9497
vn 0.3325 0.0822 -0.9395
vn 0.9224 0.1352 0.3617
vn -0.3147 0.1466 -0.9378
vn -0.9650 0.2552 -0.0606
vn -0.9745 0.2243 0.0092
vt 0.283882 0.462870
vt 0.287762 0.461431
vt 0.287576 0.467517
vt 0.207536 0.467308
vt 0.211856 0.463835
vt 0.212686 0.483576
vt 0.282006 0.478109
vt 0.288949 0.479743
vt 0.301022 0.573783
vt 0.310167 0.562200
vt 0.308039 0.573144
vt 0.273395 0.477564
vt 0.274966 0.462359
vt 0.278746 0.462306
vt 0.252034 0.463535
vt 0.252034 0.463535
vt 0.276173 0.460200
vt 0.216396 0.464310
vt 0.214504 0.462674
vt 0.216060 0.462038
vt 0.254327 0.464016
vt 0.221149 0.480637
vt 0.279614 0.460154
vt 0.284291 0.460670
vt 0.311404 0.555292
vt 0.316129 0.557395
vt 0.317087 0.572740
vt 0.205586 0.485103
vt 0.225819 0.477259
vt 0.275347 0.460093
vt 0.259151 0.458948
vt 0.259151 0.458948
vt 0.259151 0.458948
vt 0.310034 0.555308
vt 0.254327 0.464016
vt 0.254327 0.464016
vt 0.207264 0.465070
vt 0.209218 0.464462
vt 0.306572 0.555621
vt 0.307788 0.555534
vt 0.308241 0.555848
vt 0.190746 0.348012
vt 0.127164 0.232008
vt 0.254328 0.464016
vt 0.252034 0.463535
vt 0.252034 0.463535
vt 0.127164 0.232008
vt 0.127164 0.232008
vt 0.111268 0.203006
vt 0.095372 0.174005
vt 0.190746 0.348012
vt 0.254328 0.464016
vt 0.252034 0.463535
vt 0.252034 0.463535
vt 0.310167 0.562199
vt 0.259129 0.464806
vt 0.249179 0.455795
vt 0.249514 0.462791
vt 0.252952 0.463880
vt 0.254393 0.447105
vt 0.316151 0.555199
vt 0.262573 0.447783
s 0
usemtl tree
f 5/1/1 22/2/1 10/3/1
f 7/4/2 20/5/2 9/6/2
f 1/7/3 73/3/3 8/8/3
f 3/9/4 14/10/4 12/11/4
f 11/12/5 6/13/5 13/14/5
f 40/15/6 28/16/6 37/16/6
f 26/17/7 13/14/7 6/13/7
f 6/18/8 21/19/8 27/20/8
f 49/21/6 24/21/6 48/21/6
f 9/6/9 6/18/9 2/22/9
f 5/1/10 18/23/10 19/24/10
f 25/25/11 7/26/11 14/10/11
f 1/7/12 13/14/12 5/1/12
f 4/27/13 14/10/13 7/26/13
f 9/6/14 4/28/14 7/4/14
f 1/7/15 5/1/15 10/3/15
f 34/16/6 28/16/6 33/16/6
f 11/29/16 2/22/16 6/18/16
f 6/13/17 27/30/17 26/17/17
f 74/31/6 10/32/6 47/33/6
f 20/5/18 6/18/18 9/6/18
f 14/10/19 23/34/19 25/25/19
f 1/7/20 11/12/20 13/14/20
f 4/27/21 12/11/21 14/10/21
f 38/35/6 32/36/6 36/21/6
f 17/37/22 16/38/22 7/4/22
f 37/15/23 15/39/23 75/21/23
f 4/27/24 2/22/24 1/7/24
f 31/39/6 30/40/6 34/40/6
f 35/39/6 34/40/6 39/40/6
f 39/40/6 33/40/6 40/41/6
f 50/42/6 32/36/6 49/43/6
f 51/35/6 36/35/6 50/42/6
f 44/40/6 40/40/6 46/41/6
f 41/39/6 39/40/6 44/40/6
f 45/44/6 37/15/6 38/35/6
f 45/44/6 36/21/6 42/35/6
f 46/45/6 37/16/6 43/15/6
f 57/46/6 43/15/6 54/45/6
f 56/44/6 42/35/6 53/44/6
f 56/44/6 43/15/6 45/44/6
f 52/39/6 44/40/6 55/40/6
f 55/40/6 46/40/6 57/41/6
f 58/35/6 42/44/6 51/44/6
f 79/47/6 51/35/6 78/48/6
f 78/48/6 50/42/6 77/49/6
f 77/49/6 49/43/6 76/50/6
f 76/21/6 48/21/6 75/21/6
f 80/51/6 58/35/6 79/47/6
f 65/35/6 53/44/6 58/44/6
f 62/40/6 57/40/6 64/41/6
f 59/39/6 55/40/6 62/40/6
f 63/52/6 54/15/6 56/44/6
f 63/52/6 53/44/6 60/44/6
f 64/53/6 54/45/6 61/46/6
f 71/54/6 61/46/6 68/53/6
f 70/52/6 60/44/6 67/52/6
f 70/52/6 61/15/6 63/52/6
f 66/39/6 62/40/6 69/40/6
f 69/40/6 64/40/6 71/41/6
f 72/35/6 60/52/6 65/52/6
f 81/35/6 65/35/6 80/51/6
f 74/31/6 72/35/6 81/35/6
f 47/33/6 67/52/6 72/35/6
f 29/55/6 71/41/6 14/55/6
f 66/39/25 29/55/25 3/9/25
f 21/19/23 25/25/23 22/56/23
f 22/56/26 67/52/26 10/32/26
f 14/57/27 68/53/27 23/58/27
f 74/31/28 66/59/28 3/60/28
f 66/59/6 80/51/6 59/59/6
f 59/59/6 79/47/6 52/59/6
f 31/39/6 75/21/6 15/39/6
f 35/59/6 76/50/6 31/59/6
f 41/59/6 77/49/6 35/59/6
f 52/59/6 78/48/6 41/59/6
f 3/60/6 73/33/6 74/31/6
f 5/1/29 19/24/29 22/2/29
f 7/4/30 16/38/30 20/5/30
f 1/7/6 10/3/6 73/3/6
f 3/9/6 29/55/6 14/10/6
f 40/15/6 33/16/6 28/16/6
f 26/17/31 18/23/31 13/14/31
f 49/21/6 32/21/6 24/21/6
f 5/1/32 13/14/32 18/23/32
f 25/25/33 17/61/33 7/26/33
f 34/16/6 30/16/6 28/16/6
f 74/31/6 73/33/6 10/32/6
f 20/5/34 21/19/34 6/18/34
f 38/35/6 24/21/6 32/36/6
f 37/15/6 28/16/6 30/16/6
f 37/15/6 30/16/6 15/39/6
f 75/21/6 48/21/6 24/21/6
f 75/21/6 24/21/6 38/35/6
f 75/21/6 38/35/6 37/15/6
f 1/7/24 8/62/24 3/60/24
f 3/60/24 12/11/24 4/27/24
f 4/27/24 9/6/24 2/22/24
f 2/22/24 11/29/24 1/7/24
f 1/7/24 3/60/24 4/27/24
f 31/39/6 15/39/6 30/40/6
f 35/39/6 31/39/6 34/40/6
f 39/40/6 34/40/6 33/40/6
f 50/42/6 36/21/6 32/36/6
f 51/35/6 42/35/6 36/35/6
f 44/40/6 39/40/6 40/40/6
f 41/39/6 35/39/6 39/40/6
f 45/44/6 43/15/6 37/15/6
f 45/44/6 38/35/6 36/21/6
f 46/45/6 40/15/6 37/16/6
f 57/46/6 46/45/6 43/15/6
f 56/44/6 45/44/6 42/35/6
f 56/44/6 54/15/6 43/15/6
f 52/39/6 41/39/6 44/40/6
f 55/40/6 44/40/6 46/40/6
f 58/35/6 53/44/6 42/44/6
f 79/47/6 58/35/6 51/35/6
f 78/48/6 51/35/6 50/42/6
f 77/49/6 50/42/6 49/43/6
f 76/21/6 49/21/6 48/21/6
f 80/51/6 65/35/6 58/35/6
f 65/35/6 60/44/6 53/44/6
f 62/40/6 55/40/6 57/40/6
f 59/39/6 52/39/6 55/40/6
f 63/52/6 61/15/6 54/15/6
f 63/52/6 56/44/6 53/44/6
f 64/53/6 57/46/6 54/45/6
f 71/54/6 64/53/6 61/46/6
f 70/52/6 63/52/6 60/44/6
f 70/52/6 68/15/6 61/15/6
f 66/39/6 59/39/6 62/40/6
f 69/40/6 62/40/6 64/40/6
f 72/35/6 67/52/6 60/52/6
f 81/35/6 72/35/6 65/35/6
f 74/31/6 47/33/6 72/35/6
f 47/33/6 10/33/6 67/52/6
f 29/55/6 69/40/6 71/41/6
f 66/39/35 69/40/35 29/55/35
f 26/17/23 27/30/23 21/19/23
f 21/19/23 20/5/23 16/38/23
f 16/38/23 17/37/23 25/25/23
f 25/25/23 23/34/23 68/15/23
f 68/15/23 70/52/23 22/56/23
f 22/56/23 19/24/23 18/23/23
f 18/23/23 26/17/23 21/19/23
f 21/19/23 16/38/23 25/25/23
f 25/25/23 68/15/23 22/56/23
f 22/56/23 18/23/23 21/19/23
f 22/56/6 70/52/6 67/52/6
f 14/57/6 71/54/6 68/53/6
f 74/31/36 81/35/36 66/59/36
f 66/59/6 81/35/6 80/51/6
f 59/59/6 80/51/6 79/47/6
f 31/39/6 76/21/6 75/21/6
f 35/59/6 77/49/6 76/50/6
f 41/59/6 78/48/6 77/49/6
f 52/59/6 79/47/6 78/48/6
f 3/60/37 8/62/37 73/33/37
